<svg id="OBJECTS" xmlns="http://www.w3.org/2000/svg" viewBox="0 0 70.3 68.6"><defs><style>.cls-1{fill:#7b59ff;}</style></defs><title>16</title><path class="cls-1" d="M392.88,112.85a35.1,35.1,0,0,1-30.41-17.14,33.19,33.19,0,0,1-4.74-17.29,32.86,32.86,0,0,1,4.74-17.22,34.81,34.81,0,0,1,12.76-12.37,36.33,36.33,0,0,1,35.3,0h0A34.74,34.74,0,0,1,423.29,61.2,32.79,32.79,0,0,1,428,78.42a33.27,33.27,0,0,1-4.73,17.29,35.13,35.13,0,0,1-30.42,17.14Zm0-63.6a30.33,30.33,0,0,0-15.18,3.92,30,30,0,0,0-10.95,10.62,27.83,27.83,0,0,0-4,14.63,28.27,28.27,0,0,0,4,14.73,30.48,30.48,0,0,0,52.25,0,28.36,28.36,0,0,0,4-14.73,27.83,27.83,0,0,0-4-14.63,29.91,29.91,0,0,0-10.95-10.62h0A30.33,30.33,0,0,0,392.88,49.25Z" transform="translate(-357.73 -44.25)"/><path class="cls-1" d="M392.88,104.57a26.58,26.58,0,0,1-23.05-13,25.2,25.2,0,0,1-3.6-13.13,24.89,24.89,0,0,1,3.6-13.07A26.45,26.45,0,0,1,379.5,56a27.53,27.53,0,0,1,26.76,0h0a26.37,26.37,0,0,1,9.67,9.38,24.92,24.92,0,0,1,3.6,13.07,25.31,25.31,0,0,1-3.59,13.13,26.62,26.62,0,0,1-23.06,13Zm0-47A21.82,21.82,0,0,0,382,60.34,21.5,21.5,0,0,0,374.11,68a20,20,0,0,0-2.88,10.48A20.25,20.25,0,0,0,374.12,89a21.88,21.88,0,0,0,37.53,0,20.34,20.34,0,0,0,2.88-10.56A20,20,0,0,0,411.65,68a21.55,21.55,0,0,0-7.86-7.63A21.89,21.89,0,0,0,392.88,57.53Z" transform="translate(-357.73 -44.25)"/><path class="cls-1" d="M392.88,95.46A17.3,17.3,0,0,1,377.93,87a16.45,16.45,0,0,1-2.34-8.54A16.2,16.2,0,0,1,377.94,70a17.62,17.62,0,0,1,23.61-6.08h0A17.12,17.12,0,0,1,407.83,70a16.7,16.7,0,0,1,0,17,17.3,17.3,0,0,1-14.95,8.43Zm0-28.82a12.27,12.27,0,0,0-6.2,1.6,12,12,0,0,0-4.46,4.33,11.06,11.06,0,0,0-1.63,5.92,11.28,11.28,0,0,0,1.63,6,12.43,12.43,0,0,0,21.32,0,11.28,11.28,0,0,0,1.63-6,11.14,11.14,0,0,0-1.62-5.92,12.07,12.07,0,0,0-4.47-4.33h0A12.27,12.27,0,0,0,392.88,66.64Z" transform="translate(-357.73 -44.25)"/></svg>