<svg id="Layer_1" data-name="Layer 1" xmlns="http://www.w3.org/2000/svg" xmlns:xlink="http://www.w3.org/1999/xlink" viewBox="0 0 1075.3 999.79"><defs><style>.cls-1{fill:none;}.cls-2{clip-path:url(#clip-path);}.cls-3{fill:#b2cdea;}.cls-4{fill:#bc7e5f;}.cls-5{fill:#ecf2f6;}.cls-6{fill:#e4e9ed;}.cls-7{fill:#0c976b;}.cls-8{fill:#bfb8a1;}.cls-9{fill:#e5a778;}.cls-10{fill:#9e6731;}.cls-11{fill:#4f4f4f;}.cls-12{fill:#7a7668;}.cls-13{fill:#d39a6e;}.cls-14{fill:#7d6653;}.cls-15{fill:#4d4d4d;}.cls-16{fill:gray;}.cls-17{fill:#ebbd7e;}.cls-18{fill:#ebac7b;}.cls-19{fill:#7c672d;}.cls-20{fill:#ba8475;}.cls-21{fill:#a35b47;}.cls-22{fill:#ff8d68;}.cls-23{fill:#d1d0c7;}.cls-24{fill:#e48065;}.cls-25{fill:#868894;}.cls-26{fill:#669ed7;}.cls-27{fill:#fff;}.cls-28{fill:#456c94;}.cls-29{fill:#fc5426;}</style><clipPath id="clip-path" transform="translate(-62.35 -106.12)"><path class="cls-1" d="M1109.22,465.7c-40.9,91.45-54.42,188.69-46.3,299.08,7.81,106.14-7.77,208.17-146.77,275.39-79.78,38.59-159.24,30.18-328.1,50.43C465,1105.35,158.6,1071.85,145,958.3c-15.19-126.48-93-124.25-81.45-281,10-135.48,50.22-325.11,102-411.7,55-92,164.19-180,296-155.24,113.38,21.29,105.87,65.25,315.6,32,65.32-10.37,133.25.9,197.07,18.26s125.49,57.06,150.69,118.22C1149.41,338.25,1135.48,407,1109.22,465.7Z"/></clipPath></defs><g class="cls-2"><path class="cls-3" d="M1109.22,465.7c-40.9,91.45-54.42,188.69-46.3,299.08,7.81,106.14-7.77,208.17-146.77,275.39-79.78,38.59-159.24,30.18-328.1,50.43C465,1105.35,158.6,1071.85,145,958.3c-15.19-126.48-93-124.25-81.45-281,10-135.48,50.22-325.11,102-411.7,55-92,164.19-180,296-155.24,113.38,21.29,105.87,65.25,315.6,32,65.32-10.37,133.25.9,197.07,18.26s125.49,57.06,150.69,118.22C1149.41,338.25,1135.48,407,1109.22,465.7Z" transform="translate(-62.35 -106.12)"/><path class="cls-4" d="M773.2,754.28C773,804.4,770,859.45,746.62,900c-27,18-161.86,13-195.16,11.73C518.17,913,383.29,918,356.31,900c-23.42-40.51-26.4-95.56-26.59-145.68-.09-22.2.85-55,4.63-81.81,3.11-22-7.76-120,3-271.22,2.43-34.6,17.36-72,34.45-82.13,18.67-11.09,93.34-24.86,179.7-24.66,76.8,0,155.92,11.1,181.88,25.57,21,16.89,30.23,52.15,32.28,81.22,10.71,151.26-.16,249.18,3,271.22C772.35,699.25,773.3,732.08,773.2,754.28Z" transform="translate(-62.35 -106.12)"/><path class="cls-5" d="M708.6,1043.51c17.88-6.23,6.6-152.14,5.85-262.7-.58-86.39,27-267.14,8.33-328.65-29.95-20.93-42.45-26.34-115.58-50.05-51.8,35.27-66,27-107.73,1.13-1.36-.84-14.83,2.24-20,3.82-44.87,13.88-80,17.3-105.68,36.06.36,31.24-26.92,109.17-19.08,182,14,130,41.8,348.07,3.32,418.76C356.56,1046.68,596.69,1082.42,708.6,1043.51Z" transform="translate(-62.35 -106.12)"/><path class="cls-6" d="M584.93,489.26,560.24,440s25.33-.63,42.93-33.82c4.25-8,38.33,8.53,47.68,8.63C616.51,461.06,584.93,489.26,584.93,489.26Z" transform="translate(-62.35 -106.12)"/><path class="cls-5" d="M480.49,1064.34c8.77,52.32,205.8,28.07,256.43,13.71,8.12-83.15,6.37-122.72.94-217.62-6.05-105.8,43.95-385.26,20-407.68-23.86-18.81-85.54-33.16-105.11-35.42-6.4,10.45.42,48.54-17,94-31.1,81.06-65.89,209.06-98.78,319.24C505,937.77,474.36,1027.75,480.49,1064.34Z" transform="translate(-62.35 -106.12)"/><path class="cls-5" d="M490.8,1086.29c-18.87,8.08-105.62,5.92-145.78-16.15-12.64-110.43,8.63-133.2,6.56-231.33-2.23-105.95-43.25-243.5-18.89-381.09,12.48-41.34,100.74-38.65,123-43.76,12.49,20.38,22.81,121.45,46.44,229,20.82,94.82,55.19,193.45,65,264.11C572,941.91,513.09,1073.87,490.8,1086.29Z" transform="translate(-62.35 -106.12)"/><path class="cls-5" d="M382.38,505.18c-4.65,56.14-23.67,261.08-81.26,290.31,0,0-56.58,15.41-61.57-74.83,1.67-44,18.75-49,43-213.91,5.06-34.45,20.65-62,77.15-75.37C380.91,426.57,387.14,470.37,382.38,505.18Z" transform="translate(-62.35 -106.12)"/><path class="cls-5" d="M712.53,532.35c10.85,66.87,57.52,249.39,103.57,264.49,0,0,73.16,17.75,71.69-72.62-4.81-43.79-23.54-47.9-70.37-207.9-12.54-42.84-41-62.58-86.09-77.9C714,435.64,705.29,498,712.53,532.35Z" transform="translate(-62.35 -106.12)"/><polygon class="cls-7" points="453.08 367.51 471.21 394.36 428.43 752.71 476.59 809.57 524.25 759.95 497.87 394.85 516.19 370.49 505.08 345.76 467.01 345.76 453.08 367.51"/><path class="cls-8" d="M933.88,610.81h0c-28.24,25.84-47.71-20.93-48.53-37.46C894.06,567.16,936.13,606.49,933.88,610.81Z" transform="translate(-62.35 -106.12)"/><path class="cls-9" d="M879.29,594.92c8.62-15.48,15.2-26,14.67-31.25-2.82-28,8.57-31.41,16.49-49.85,4.21-9.82,6-23.35,6.34-34,.34-10,5.2-12.08,10.42-5.1,4.63,6.19,7.62,13.9,5.14,21.22-1.87,5.54-10.4,19.05-1.94,22.43,4.48,1.79,18.94-3.73,23.89-5.48,33.81-11.95,63.92-28.28,66.65-27.61,3.14.8.53,8.23-2,11.35,4.77-1.45,12.32-7.91,14.15-7.94,3,1.1,2,5.43.81,8.39s-2.45,6-4.67,8.29c-5,5.14.09,4.15-2,11.47-1.25,4.34-9,19.82-17.23,25,.94,9.84-14.61,23.25-26.58,30-16.34,9.29-28.28,21.12-42.56,24.38-6.67,1.53-7.57,9.47-22,32.38C910.54,641.9,877.26,599.6,879.29,594.92Z" transform="translate(-62.35 -106.12)"/><path class="cls-10" d="M968.8,519.21a23.38,23.38,0,0,1,3,8.34c3.32,18.29-2.48,25.34-4.57,38.28-.52,3.63-2.62,5.84-3,8.36-.09-2.64,1.59-4.79,1.81-8.49.63-9.86,2.46-10.69,3.8-19C971.7,536.71,971.09,524.31,968.8,519.21Z" transform="translate(-62.35 -106.12)"/><path class="cls-10" d="M978.85,522.91c-.62.58-1.55,1.68-1.45,1.57a1,1,0,0,1-1.52-1.35c3.7-4.2,8.36-6.43,13.83-8.7l4.22-1.75a78.51,78.51,0,0,0,23.21-14.83c1-1,1.57-1.51,1.57-1.51a.38.38,0,0,1,.54.52C1003.12,513.92,986.07,515.36,978.85,522.91Z" transform="translate(-62.35 -106.12)"/><path class="cls-10" d="M1026.73,508.27c-11.92,15.09-12.23,16.26-30.47,25.77-10.86,5.67-17.45,7-17.45,7a1,1,0,0,1-1.23-.74c-.56-2.26,2.29,0,18-7.7,18.25-9,18.48-10.07,30.65-24.78a.36.36,0,0,1,.49,0A.34.34,0,0,1,1026.73,508.27Z" transform="translate(-62.35 -106.12)"/><path class="cls-10" d="M1008.67,542.41c-10.65,7.19-23.34,15.11-34.44,21.52a1,1,0,0,1-1.39-.36c-1.24-2.14,2.41-1,35.37-21.86A.42.42,0,0,1,1008.67,542.41Z" transform="translate(-62.35 -106.12)"/><path class="cls-5" d="M926.76,646.89c-4.49,24.37-17.32,61-26,79.82-21.63,47.11-28.56,61.07-53.63,69.42-15.73,5.24-48.12-9.39-53.88-26.47-13.52-40.11,19.25-88.44,53.58-143.1,3.53-5.61,10.85-16.06,17.07-20.37,3.72-12.68,13-22.12,21.42-32.83.82,16.53,20.29,63.3,48.53,37.46h0C935,614.37,931.06,639.67,926.76,646.89Z" transform="translate(-62.35 -106.12)"/><path class="cls-11" d="M904.28,653.84a33.11,33.11,0,0,1-9.16-1.25c-15.86-4.53-29.26-30-31.89-46.29l1.38-.22c2.57,15.91,15.56,40.79,30.89,45.17s30.74-4.85,30.89-4.94l.74,1.18C927,647.57,916.7,653.84,904.28,653.84Z" transform="translate(-62.35 -106.12)"/><path d="M919.87,634.92c0,3.17-1.66,5.74-3.72,5.74s-3.73-2.57-3.73-5.74,1.67-5.74,3.73-5.74S919.87,631.75,919.87,634.92Z" transform="translate(-62.35 -106.12)"/><path class="cls-5" d="M324.72,765.91c-10.89,24.78-24.57,39.57-49.64,28.19a69.06,69.06,0,0,1-22.33-16.22,51.9,51.9,0,0,1-5-6.37c2-8.12,3.47-19.76,2.88-25.51-1.74-17.2,6.11-13.44,21-8.67,6.86,2.2,14.65,3.28,17.53-3.77,12.32-30,1.27-50.37-10.21-60.84-4.31-4.71-4.65-19.69-5.7-24.42,3.8-.81,10.46.84,14.14,2.07,23.56,7.87,39.36,30.21,43.61,63.7C333.11,730.87,329.06,756.08,324.72,765.91Z" transform="translate(-62.35 -106.12)"/><path class="cls-12" d="M317.05,719.79c7.47-29.08-22.11-54.17-43.5-70.45a.7.7,0,0,1,.85-1.11c21.72,16.54,51.66,42.09,44,71.9A.7.7,0,1,1,317.05,719.79Z" transform="translate(-62.35 -106.12)"/><path class="cls-12" d="M287.46,764.78c-9.37,0-28.19-9.38-37.73-26.33a.7.7,0,0,1,.26-1,.69.69,0,0,1,.95.27c9.29,16.49,27.49,25.61,36.52,25.61,10.11,0,19.11-8.5,25.32-23.94a.71.71,0,0,1,.91-.39.7.7,0,0,1,.39.91C307.63,756,298.18,764.78,287.46,764.78Z" transform="translate(-62.35 -106.12)"/><path class="cls-13" d="M290.36,734.74c-2.4,5.87-10.81,6.19-16.51,4.35-12.38-4-18.91-7.1-17.46,7.22a61.92,61.92,0,0,1-1.31,19.14,28.42,28.42,0,0,1-4,9.52c-2.89,4.07-11.53,9.86-13.56,4-1.16-5.14,9.3-36.32,3.42-45.46-2.62-2.75-6.26,16.88-7.93,23.55-4.12,16.33-28.45,16.71-16.24-5.91,5-9.29,7.42-18.36,8.5-28.87,1-9.41-3.1-12.93-4.07-8.92-2.73,10-5.7,15.49-9.76,19.43-8.08,7.85-19.28,4-12.9-11.4,3.45-8.33,17.23-40.51,14.64-37.8-3.19,7.54-6.66,14.69-14.64,19.53-7.15,4.34-10.66-1.51-9.11-11.15,2.51-15.67,8.3-29.22,20.5-39.37,12.53-10.41,27.12-12.58,15.68-29.17C217.69,612,215,596.1,216.12,586.47c1.17-10.32,6.53-9.76,11.7-4.49,12.53,12.76,11.44,27.14,17.62,38.86,7.37,13.92,25.65,17.11,31.2,34.68a76.47,76.47,0,0,1,1.79,7.54c.87,3.94,2,7.77,5.62,11.69C293.61,683.47,300.62,709.8,290.36,734.74Z" transform="translate(-62.35 -106.12)"/><path class="cls-14" d="M225.56,663.63c1,15,10.71,46,26.58,64.42C233.65,712.17,224.1,680,225.56,663.63Z" transform="translate(-62.35 -106.12)"/><path class="cls-14" d="M244.05,653.39c4.26,9.78,5.32,17.33,15.87,23.9C249.57,675.76,244.09,663.56,244.05,653.39Z" transform="translate(-62.35 -106.12)"/><path class="cls-15" d="M342.38,734.84l-1.27-.58c15.88-34.58,38.82-178.78,40.57-229.11l1.39.05C381.28,556.92,358.67,699.36,342.38,734.84Z" transform="translate(-62.35 -106.12)"/><path class="cls-15" d="M749.53,681.47C736,644,712.27,555.08,708.7,516.39l1.39-.13c3.56,38.59,27.2,127.29,40.75,164.74Z" transform="translate(-62.35 -106.12)"/><path class="cls-15" d="M330.72,744.45l-1.36-.33c.05-.2,4.84-20.68-2.27-46.16-7.54-29-24.6-45.59-50.7-49.19l.19-1.38c26.71,3.69,44.16,20.58,51.86,50.21C335.64,723.43,330.77,744.24,330.72,744.45Z" transform="translate(-62.35 -106.12)"/><path class="cls-16" d="M575.53,469.42c4.05,7.41,8.94,17.26,10.09,19.51l-1.23-.21c46.77-49.17,51.09-53.45,56.28-60.23-10.13,16.08-42.36,49-56,62.07C583,486.8,578.66,477.16,575.53,469.42Z" transform="translate(-62.35 -106.12)"/><path class="cls-6" d="M504.75,490.46l30.6-49.75s-24.87-1.37-42.47-34.56c-4.25-8-37.32,9.88-46.67,10C480.54,462.38,504.75,490.46,504.75,490.46Z" transform="translate(-62.35 -106.12)"/><path class="cls-16" d="M450.82,423.35c13.58,15.17,43.07,51.39,54.57,66.59L504,490c2.58-4,9.91-15.38,14.57-22.11-3.88,7.16-10.59,18.58-13.74,24C490.79,475.37,462.23,439.21,450.82,423.35Z" transform="translate(-62.35 -106.12)"/><path class="cls-17" d="M614,406.6c-11.92,27.82-85.55,41.58-127.72,2,9.86-6.16,14.06-19.94,15.25-41.63q.46-8.43.38-18.41v-.93c0-5.86-.22-12.16-.45-18.83-.13-3.48-.29-7.05-.45-10.74h95.25s-.4,3.15-.74,8.29c-.32,4.78-.58,11.36-.38,18.79,0,1,0,2,.09,3,.13,3.64.4,7.46.81,11.32C597.83,376.67,602.63,395.21,614,406.6Z" transform="translate(-62.35 -106.12)"/><path class="cls-18" d="M556.59,466.14c-41.39,11.71-92.72-61.82-107.8-115.42-18.43-65.44,8-130.49,64.68-146.5s112.77,7.91,133.6,81.6C665.6,351.7,612.89,450.27,556.59,466.14Z" transform="translate(-62.35 -106.12)"/><path class="cls-18" d="M652.17,330.14c3,2.19,3.06,6.53,2.71,10.21-1.4,14.72-20.13,60.11-23,52.4a77.87,77.87,0,0,1-.14-17.73c.76-7.17,3.68-4,3.2-10.57A62.73,62.73,0,0,1,638.41,339c1.07-3,2.45-6.05,4.92-8.07S649.61,328.25,652.17,330.14Z" transform="translate(-62.35 -106.12)"/><path class="cls-18" d="M441.52,321.85c-3,2.15-3.16,6.49-2.86,10.16,1.17,14.75,19.19,60.43,22.16,52.76a77.33,77.33,0,0,0,.42-17.73c-.65-7.18-3.62-4-3-10.61A62.71,62.71,0,0,0,455.15,331c-1-3-2.36-6.08-4.79-8.14S444.12,320,441.52,321.85Z" transform="translate(-62.35 -106.12)"/><path class="cls-19" d="M655.11,254.94c-.76-11.33-1.65-23.11-7.29-33-9-15.72-27.54-22.77-44.65-28.66-15.31-5.28-30.74-10.59-46.79-12.77s-32.94-1-47.48,6.08c-13.37,6.55-24.35,13.66-38.24,19-9.25,3.56-20,8.87-26.59,16.26-6,6.72-6.55,16.55-6.66,25.56-.38,32.87,1.22,66.83,15.31,96.53a70.47,70.47,0,0,0,7.22-26.75c.65-12.47-2.67-24.79-3.34-37.26s2-26.29,11.77-34.05c12.3-9.76,30.24-6.15,45-.82s30.78,12,45.61,6.8c8.75-3.06,16-10,25.22-11.37,5.22-.76,10.52.4,15.58,1.89,11.05,3.26,22.07,8.43,29.11,17.55,15.23,19.71,7,50.15,20.7,70.93C658.44,306.88,656.84,280.47,655.11,254.94Z" transform="translate(-62.35 -106.12)"/><path class="cls-15" d="M793,771c-.29-.52-7.06-13-1.7-38,7.14-33.36,43.84-93.85,58.07-111.54l1.09.87c-14.17,17.61-50.7,77.8-57.8,111-5.25,24.51,1.49,37,1.56,37.07Z" transform="translate(-62.35 -106.12)"/><path class="cls-20" d="M1084.31,802.57l-19.46,219.63c-2.32,26.12-22.87,46.06-47.44,46l-872.11-1.45c-24.56,0-45.05-20-47.3-46.15L79.48,805.25Z" transform="translate(-62.35 -106.12)"/><path class="cls-21" d="M1084.31,802.57l-10.91,254.86c-1.17,27.17-22.17,48.54-47.64,48.48l-897.28-2.26c-25.86-.07-46.93-22.16-47.46-49.76L77.15,853.24l2.33-48L98,1020.62c2.25,26.11,22.74,46.11,47.3,46.15l872.11,1.45c24.57,0,45.12-19.9,47.44-46Z" transform="translate(-62.35 -106.12)"/><path class="cls-22" d="M664,919.88c-1.8-.54-7.28-1-15.61-1.23-47.08-1.57-185,.84-260.15,3.21-24.9.78-42.88,1.56-48.36,2.19l92.54-132.94c31.6-7.7,185.36-1.68,202.53.19,10.7,1.4,11.5,12.86,13.44,31.41C650.23,840.53,655.4,884.88,664,919.88Z" transform="translate(-62.35 -106.12)"/><path class="cls-23" d="M648.36,918.65s0,78.39-3.93,78.88c-10.66.94-256.22.93-256.22.93v-76.6C463.32,919.49,601.28,917.08,648.36,918.65Z" transform="translate(-62.35 -106.12)"/><path class="cls-24" d="M668.45,1012.07c-3.41,3.78-41.1,5.17-81.85,3.09s-188,6.37-241.44,2c4.32-17.66,43-95.25,43-95.25v76.6s245.56,0,256.22-.93c3.93-.49,3.93-78.88,3.93-78.88,8.33.28,13.81.69,15.61,1.23,5.53,11.67,3.79,49.25,1.18,80.35C668.27,1002.68,669.62,1010,668.45,1012.07Z" transform="translate(-62.35 -106.12)"/><ellipse class="cls-25" cx="547.59" cy="719.7" rx="17.76" ry="4.56"/><ellipse class="cls-25" cx="545.81" cy="768.25" rx="17.76" ry="4.56"/><rect class="cls-26" x="781.24" y="156.45" width="334.18" height="218.27" transform="translate(1834.31 425.05) rotate(180)"/><rect class="cls-27" x="789.27" y="164.76" width="318.12" height="201.66" transform="translate(1834.31 425.05) rotate(180)"/><path class="cls-28" d="M1028,338.63a1,1,0,0,0,.83-1.07V182a.85.85,0,1,0-1.65,0V337.56A1,1,0,0,0,1028,338.63Z" transform="translate(-62.35 -106.12)"/><path class="cls-28" d="M795,219.22h299.42a1,1,0,0,0,.83-1.07,1,1,0,0,0-.83-1.06H795a1,1,0,0,0-.82,1.06A1,1,0,0,0,795,219.22Z" transform="translate(-62.35 -106.12)"/><path class="cls-28" d="M795,259.2h299.42a1.1,1.1,0,0,0,0-2.13H795a1.1,1.1,0,0,0,0,2.13Z" transform="translate(-62.35 -106.12)"/><path class="cls-28" d="M795,299.18h299.42a1,1,0,0,0,.83-1.07,1,1,0,0,0-.83-1.06H795a1,1,0,0,0-.82,1.06A1,1,0,0,0,795,299.18Z" transform="translate(-62.35 -106.12)"/><path class="cls-28" d="M795,339.16h299.42a1.1,1.1,0,0,0,0-2.13H795a1.1,1.1,0,0,0,0,2.13Z" transform="translate(-62.35 -106.12)"/><path class="cls-28" d="M1000.18,338.63a1,1,0,0,0,.82-1.07V182a.85.85,0,1,0-1.65,0V337.56A1,1,0,0,0,1000.18,338.63Z" transform="translate(-62.35 -106.12)"/><path class="cls-28" d="M1084.17,338.63a1,1,0,0,0,.83-1.07V182a.85.85,0,1,0-1.65,0V337.56A1,1,0,0,0,1084.17,338.63Z" transform="translate(-62.35 -106.12)"/><path class="cls-28" d="M1056.38,338.63a1,1,0,0,0,.82-1.07V182a.85.85,0,1,0-1.65,0V337.56A1,1,0,0,0,1056.38,338.63Z" transform="translate(-62.35 -106.12)"/><path class="cls-28" d="M972.38,338.63a1,1,0,0,0,.83-1.07V182a.85.85,0,1,0-1.65,0V337.56A1,1,0,0,0,972.38,338.63Z" transform="translate(-62.35 -106.12)"/><path class="cls-28" d="M944.59,338.63a1,1,0,0,0,.82-1.07V182a.85.85,0,1,0-1.64,0V337.56A1,1,0,0,0,944.59,338.63Z" transform="translate(-62.35 -106.12)"/><path class="cls-28" d="M916.8,338.63a1,1,0,0,0,.82-1.07V182a.85.85,0,1,0-1.65,0V337.56A1,1,0,0,0,916.8,338.63Z" transform="translate(-62.35 -106.12)"/><path class="cls-28" d="M889,338.63a1,1,0,0,0,.83-1.07V182a.85.85,0,1,0-1.65,0V337.56A1,1,0,0,0,889,338.63Z" transform="translate(-62.35 -106.12)"/><path class="cls-28" d="M861.21,338.63a1,1,0,0,0,.82-1.07V182a.85.85,0,1,0-1.65,0V337.56A1,1,0,0,0,861.21,338.63Z" transform="translate(-62.35 -106.12)"/><path class="cls-28" d="M833.42,338.63a1,1,0,0,0,.82-1.07V182a.85.85,0,1,0-1.65,0V337.56A1,1,0,0,0,833.42,338.63Z" transform="translate(-62.35 -106.12)"/><path class="cls-28" d="M805.62,338.63a1,1,0,0,0,.83-1.07V182a.85.85,0,1,0-1.65,0V337.56A1,1,0,0,0,805.62,338.63Z" transform="translate(-62.35 -106.12)"/><rect class="cls-29" x="743.27" y="191.44" width="20.39" height="39.46"/><rect class="cls-26" x="778.37" y="169.13" width="20.39" height="61.78"/><rect class="cls-29" x="813.46" y="198.18" width="20.39" height="32.72"/><rect class="cls-26" x="848.56" y="141.65" width="20.39" height="89.25"/><rect class="cls-29" x="916.61" y="139.3" width="20.39" height="91.61"/><rect class="cls-26" x="953.51" y="153.08" width="20.39" height="77.82"/><rect class="cls-26" x="883.06" y="125.99" width="20.39" height="104.91"/><rect class="cls-29" x="988.6" y="178.45" width="20.39" height="51.97"/></g></svg>