<svg xmlns="http://www.w3.org/2000/svg" viewBox="0 0 608.31 430.3"><defs><style>.cls-1{isolation:isolate;}.cls-11,.cls-2{opacity:0.42;}.cls-11,.cls-3{fill:#e8c6cc;}.cls-4{opacity:0.8;}.cls-5{fill:#8ac9ff;}.cls-6{fill:#ff508a;}.cls-7{fill:#8f3dc4;}.cls-8{fill:#ffd942;}.cls-9{fill:#b3dcff;}.cls-10{fill:#723891;}.cls-12,.cls-23,.cls-25{opacity:0.4;}.cls-13,.cls-19{fill:#1c1c42;}.cls-14{mix-blend-mode:multiply;}.cls-14,.cls-19{opacity:0.2;}.cls-15,.cls-17,.cls-23{fill:#413e5e;}.cls-15,.cls-18{opacity:0.6;}.cls-16{fill:#2c2b4f;}.cls-18,.cls-20,.cls-21,.cls-24,.cls-25{fill:#575370;}.cls-21{opacity:0.5;}.cls-22,.cls-24{opacity:0.3;}.cls-26{fill:#ffb8bc;}.cls-27{fill:#4a245e;}.cls-28{fill:#ff808c;}.cls-29{fill:#ffba99;}.cls-30{fill:none;stroke:#312220;stroke-linecap:round;stroke-linejoin:round;stroke-width:0.56px;}.cls-31{fill:#e83479;}</style></defs><g class="cls-1"><g id="OBJECTS"><g class="cls-2"><path class="cls-3" d="M360.57,400.14a238.35,238.35,0,0,0,63.12,1.5c64.39-7.32,115.09-44.87,150-97.79,14.82-22.49,26.53-48.52,25.1-75.76-2.28-43.71-44.78-72-84.48-78.21-38.95-6.06-78,4.79-115.37,16.34-18.6,5.75-39.1,11.63-57.22,3.82-17.61-7.6-27.83-25.89-38-42.25-19.79-31.67-43.18-69.42-81.47-79.09-25.68-6.48-54-.32-74.26,16.19C130.26,79.24,119,100.6,114.32,123.1s-3.06,46.09,2,68.71c16.93,76.21,76.24,137.07,143.2,173.34C291,382.24,325.45,394.75,360.57,400.14Z" transform="translate(-70.65 -46.17)"/></g><g class="cls-4"><path class="cls-5" d="M517.87,241.59c5.92,25.91-5.45,53.14-1.16,79.38,1.26,7.72,3.86,15.18,5,22.92s.62,16.15-3.81,22.6c-4.09,6-11.06,9.45-18.15,10.82-4.27.82-8.83.94-12.81-.8-5.57-2.43-9.13-8.14-10.71-14-2.48-9.24-.86-19-.22-28.54s0-19.92-6-27.36c-3.88-4.78-9.67-7-13.89-11.45A35,35,0,0,1,446.94,277a23.92,23.92,0,0,1,.81-12.26A14.76,14.76,0,0,1,456,256c6.3-2.37,9.65,2.83,15.45,2.88,4.34,0,8-3.41,10-7.25s2.81-8.2,4.5-12.19a22.26,22.26,0,0,1,9.73-11.29c4.48-2.36,10.25-2.56,14.5.19C514.61,231.16,516.71,236.47,517.87,241.59Z" transform="translate(-70.65 -46.17)"/><path class="cls-6" d="M222.23,388.39a5.75,5.75,0,0,1-1.25-2.65c-.42-2.53,1.21-5.09,3.44-6.36a8.48,8.48,0,0,1,5.15-1,11.3,11.3,0,0,1,6.16,3.07,8,8,0,0,1,2.42,3.49c.67,2.3-.71,4.29-2.55,5.54-3.4,2.32-7.56,1.81-11-.13A8.18,8.18,0,0,1,222.23,388.39Z" transform="translate(-70.65 -46.17)"/><path class="cls-7" d="M503.15,287.2c3.7,8.56,9.48,16.3,10.81,25.7,1.76,12.34-4.45,25.66-2.42,37.94,1.78,10.7,13.67,26.92,24.75,30.2,14.22,4.22,30.37-7.74,34.42-21.11,2.43-8,2.68-16.24,2.36-24.29-1-26.22-8.38-52.36-25.91-70.86-5.23-5.53-11.57-10.43-19.39-12.09s-17.33.58-22.83,7C498.21,267.56,499.45,278.64,503.15,287.2Zm17.13-24.32a6.15,6.15,0,1,1,11.93,3c-.82,3.29-3.44,2.39-6.73,1.57S519.45,266.18,520.28,262.88Z" transform="translate(-70.65 -46.17)"/><path class="cls-8" d="M306.67,381.75a27.78,27.78,0,0,1-24.21,13.36,30.82,30.82,0,0,1-24.39-13.57,18.06,18.06,0,0,1-3.36-8.74,9.63,9.63,0,0,1,3.55-8.37c3.07-2.23,7.32-1.88,10.92-.68s6.95,3.13,10.67,3.86,8.14-.11,10.16-3.33a35.43,35.43,0,0,0,1.58-3.49c4-8.14,14.87-6.83,18.66.67C313.24,367.38,309.77,376.39,306.67,381.75Z" transform="translate(-70.65 -46.17)"/><path class="cls-6" d="M587.7,347.66c.29-.48.57-1,.82-1.47,5.5-11.16-4-30.31,11.36-35.93,2.43-.88,5.18-1,7.35-2.42,3.41-2.21,4.28-6.87,3.86-10.91s-1.81-8-1.67-12.05a16.51,16.51,0,0,1,11-14.71c5-1.68,11-1,15.06-4.3,3.65-2.94,4.58-8.21,3.95-12.86s-2.53-9-3.51-13.62a35.27,35.27,0,0,1,2.55-22.17c2.63-5.62,7.16-10.75,13.18-12.26,4-1,8.21-.34,12.18.76,1,.27,1.92.58,2.86.91a20.22,20.22,0,0,1,8.69,5.5c3.66,4.25,4.47,10.52,2.77,15.86s-5.64,9.77-10.34,12.83c-2.37,1.55-5.09,2.94-6.32,5.49-2.29,4.75,1.81,9.87,4,14.65,3,6.57,2.43,14.48-.74,21s-8.73,11.64-15,15.2c-5.87,3.34-13.29,6.43-14.52,13.07-.76,4.11,1.28,8.22,3.73,11.6s5.42,6.5,7,10.39a16.45,16.45,0,0,1-5.36,18.67c-3.87,2.86-8.78,3.83-13.54,4.51-7.8,1.11-14.5,2.76-15.13,12.12-.17,2.44.29,5-.54,7.28-1.58,4.36-7.07,5.9-11.69,5.51a21.41,21.41,0,0,1-15.23-8c-3.56-4.71-4.6-11.39-2-16.71C583.73,352.71,586,350.37,587.7,347.66Z" transform="translate(-70.65 -46.17)"/><path class="cls-9" d="M577.32,243.65a14.29,14.29,0,0,1,8.89-14.55,13.32,13.32,0,0,1,3.63-.79,14.37,14.37,0,0,1,12.65,5.85,11.59,11.59,0,0,1,2.07,5.3,19.8,19.8,0,0,1-.82,6.69c-1.14,4.74-6,15.54-3.14,19.72,2.09,3,5.74,4.64,8.06,7.5a11.38,11.38,0,0,1,.35,13.44c-3.3,4.56-10.13,6.83-11,12.4-.69,4.62,3.27,8.46,6.63,11.71,5.43,5.26,10.44,12.82,7.81,19.91-2.17,5.86-7.72,7.14-12,10.77-4,3.4-4.76,8.68-4.61,13.66.21,6.29.3,13.2-6.63,15.9-4.06,1.58-8.63,1-12.83-.14-6-1.62-11.79-4.45-15.82-9.14-5.41-6.3-7-19.34.25-25.26,2.41-2,5.53-3.41,6.69-6.29s-.06-6-1.68-8.62-3.69-4.95-4.53-7.87A10.47,10.47,0,0,1,564.7,303c3.12-2.52,7.83-3.35,9.61-6.94,3.06-6.18-5.6-13.31-3.17-19.76,1.68-4.48,7.7-5.7,10.32-9.71,2.21-3.38,1.46-7.89,0-11.64S577.78,247.66,577.32,243.65Z" transform="translate(-70.65 -46.17)"/><path class="cls-8" d="M642.48,403.71c-5.89,1.3-12.21,2.2-16.85,6.11-3.78,3.19-6.26,8.25-10.94,9.79-4.5,1.48-9.67-1.22-11.85-5.44s-1.74-9.49.28-13.81,5.45-7.84,9.12-10.86a68.05,68.05,0,0,1,21.7-12,31.27,31.27,0,0,1,14.85-1.1c3.61.62,7.25,2.11,9.51,5C666.69,392.15,651.24,401.77,642.48,403.71Z" transform="translate(-70.65 -46.17)"/><path class="cls-6" d="M587.13,237.69a4.23,4.23,0,0,1-2.78,3.78,1.09,1.09,0,0,1-1.36-.75,1.13,1.13,0,0,1,.75-1.37,1.91,1.91,0,0,0,1.18-1.61,1.13,1.13,0,0,1,1.08-1.13,1.12,1.12,0,0,1,1.13,1.08Z" transform="translate(-70.65 -46.17)"/><path class="cls-6" d="M582,238.84l-1-.24a1.1,1.1,0,0,1,.54-2.14l1,.24a1.1,1.1,0,0,1-.54,2.14Z" transform="translate(-70.65 -46.17)"/><path class="cls-6" d="M579.39,233.82a2.75,2.75,0,0,1-.11-2.65,1.09,1.09,0,0,1,1.5-.41,1.11,1.11,0,0,1,.41,1.5q.06-.16,0,0c-.08.29,0-.18,0,.13a.45.45,0,0,0,.1.27,1.1,1.1,0,0,1-.38,1.51,1.12,1.12,0,0,1-1.51-.38Z" transform="translate(-70.65 -46.17)"/><path class="cls-6" d="M583.51,231.49a4.2,4.2,0,0,0,.64-1.77,1.14,1.14,0,0,1,1.08-1.13,1.11,1.11,0,0,1,1.13,1.08,6.92,6.92,0,0,1-.93,2.9c-.73,1.22-2.65.14-1.92-1.08Z" transform="translate(-70.65 -46.17)"/><path class="cls-6" d="M580.94,226.34l.54-2.14a1.1,1.1,0,0,1,2.14.53l-.54,2.14a1.1,1.1,0,0,1-2.14-.53Z" transform="translate(-70.65 -46.17)"/><path class="cls-6" d="M576.15,228.81a8.76,8.76,0,0,0-3.86-.54c-1.42.12-1.46-2.09,0-2.2a10.07,10.07,0,0,1,4.45.61c1.31.49.79,2.63-.54,2.13Z" transform="translate(-70.65 -46.17)"/><path class="cls-6" d="M574.07,224.17a5.69,5.69,0,0,1-.07-3.37c.38-1.36,2.52-.83,2.13.54a3.74,3.74,0,0,0,0,2.22c.45,1.35-1.67,2-2.11.61Z" transform="translate(-70.65 -46.17)"/><path class="cls-6" d="M575.84,237.38a4.45,4.45,0,0,0-2.57,1.26,1.1,1.1,0,0,1-1.51-.38,1.12,1.12,0,0,1,.38-1.51,6,6,0,0,1,3.65-1.57,1.1,1.1,0,0,1,.05,2.2Z" transform="translate(-70.65 -46.17)"/><path class="cls-6" d="M571.69,233.49a4.64,4.64,0,0,0-2.39-.3,1.12,1.12,0,0,1-1.37-.75,1.1,1.1,0,0,1,.75-1.36,6.6,6.6,0,0,1,3.55.28,1.12,1.12,0,0,1,.8,1.33,1.09,1.09,0,0,1-1.34.8Z" transform="translate(-70.65 -46.17)"/><path class="cls-6" d="M565.21,227.69c.16-1.05.31-2.11.47-3.16a1.11,1.11,0,0,1,1.34-.8,1.12,1.12,0,0,1,.8,1.34l-.48,3.15a1.09,1.09,0,0,1-1.33.8,1.11,1.11,0,0,1-.8-1.33Z" transform="translate(-70.65 -46.17)"/><path class="cls-6" d="M569.15,223.5a1.1,1.1,0,0,1,.54-2.14,1.1,1.1,0,0,1-.54,2.14Z" transform="translate(-70.65 -46.17)"/><path class="cls-6" d="M564.4,220.45l-2.85,1.3a1.13,1.13,0,0,1-1.52-.38,1.11,1.11,0,0,1,.38-1.51l2.86-1.3a1.12,1.12,0,0,1,1.51.38,1.1,1.1,0,0,1-.38,1.51Z" transform="translate(-70.65 -46.17)"/><path class="cls-6" d="M563,229.41a7.47,7.47,0,0,1-1.76,3.14c-1,1-2.55-.5-1.58-1.54a5,5,0,0,0,1.2-2.13c.39-1.37,2.52-.84,2.14.53Z" transform="translate(-70.65 -46.17)"/><path class="cls-6" d="M566.56,236.36,565.9,239a1.1,1.1,0,0,1-2.14-.53l.66-2.62a1.1,1.1,0,0,1,2.14.54Z" transform="translate(-70.65 -46.17)"/><path class="cls-6" d="M574.05,240.41a29.5,29.5,0,0,0,4.41,1.34,1.1,1.1,0,0,1-.54,2.14,32.7,32.7,0,0,1-4.95-1.56c-1.32-.53-.22-2.44,1.08-1.92Z" transform="translate(-70.65 -46.17)"/><path class="cls-6" d="M579.31,246.1c-.63,2.16-2.83,2.56-4.79,2.42a1.12,1.12,0,0,1-1.13-1.07,1.11,1.11,0,0,1,1.08-1.13c.78.05,2.41.27,2.71-.75.4-1.36,2.53-.83,2.13.53Z" transform="translate(-70.65 -46.17)"/><path class="cls-6" d="M572.06,246.24a1.26,1.26,0,0,0-.85.88,1.1,1.1,0,0,1-2.13-.53,3.53,3.53,0,0,1,2.37-2.47,1.1,1.1,0,0,1,.61,2.12Z" transform="translate(-70.65 -46.17)"/><path class="cls-6" d="M568,240.37a1.1,1.1,0,0,1,.54-2.14,1.1,1.1,0,0,1-.54,2.14Z" transform="translate(-70.65 -46.17)"/><path class="cls-6" d="M582.67,246.09a1.1,1.1,0,0,1,.54-2.14,1.1,1.1,0,0,1-.54,2.14Z" transform="translate(-70.65 -46.17)"/><path class="cls-6" d="M566.88,246.59a17.58,17.58,0,0,1-5.56.18c-1.41-.17-.86-2.31.54-2.13a14.12,14.12,0,0,0,4.4-.16c1.39-.27,2,1.85.62,2.11Z" transform="translate(-70.65 -46.17)"/><path class="cls-6" d="M560.14,242a4.09,4.09,0,0,1-1.69-4.13,1.1,1.1,0,0,1,2.14.53,1.78,1.78,0,0,0,.64,1.68,1.13,1.13,0,0,1,.41,1.5,1.1,1.1,0,0,1-1.5.42Z" transform="translate(-70.65 -46.17)"/><path class="cls-6" d="M555.17,235.67a4.48,4.48,0,0,1-1.91-3.37,1.1,1.1,0,0,1,2.2-.05,1.91,1.91,0,0,0,.25.83,2.25,2.25,0,0,0,.12.21c.18.28-.1-.1.12.15l.16.18s.29.23.15.13a1.13,1.13,0,0,1,.41,1.5,1.1,1.1,0,0,1-1.5.42Z" transform="translate(-70.65 -46.17)"/><path class="cls-6" d="M558.84,226.6l-.24,2a1.1,1.1,0,0,1-1.34.8,1.13,1.13,0,0,1-.8-1.33c.08-.66.17-1.31.25-2a1.09,1.09,0,0,1,1.33-.8,1.11,1.11,0,0,1,.8,1.33Z" transform="translate(-70.65 -46.17)"/><path class="cls-6" d="M551,228.3a1.1,1.1,0,0,1,.54-2.14,1.1,1.1,0,0,1-.54,2.14Z" transform="translate(-70.65 -46.17)"/><path class="cls-6" d="M554.88,243.15a1.1,1.1,0,0,1,.54-2.14,1.1,1.1,0,0,1-.54,2.14Z" transform="translate(-70.65 -46.17)"/><path class="cls-6" d="M564.72,249.05c1.82.56,2.56,2.29,3,4,.35,1.38-1.77,2-2.12.62-.21-.81-.49-2.19-1.41-2.48-1.35-.42-.82-2.56.53-2.13Z" transform="translate(-70.65 -46.17)"/><path class="cls-6" d="M570.43,251.6a1.1,1.1,0,0,1,.54-2.14,1.1,1.1,0,0,1-.54,2.14Z" transform="translate(-70.65 -46.17)"/><path class="cls-6" d="M556.65,252.18a1.1,1.1,0,0,1,.54-2.14,1.1,1.1,0,0,1-.54,2.14Z" transform="translate(-70.65 -46.17)"/><path class="cls-6" d="M555.42,246.06a7.4,7.4,0,0,0-3.45-2.4c-1.34-.43-.81-2.57.54-2.13a9.35,9.35,0,0,1,4.45,2.95c.9,1.09-.63,2.68-1.54,1.58Z" transform="translate(-70.65 -46.17)"/><path class="cls-6" d="M216.1,372.63c-6.26,4.69-7.52,12.83-12.07,18.91-8.16,10.92-26.25,13-39.41,7.26-6.29-2.76-11.78-7-18.36-9.1-14.49-4.71-30.25,1.51-45.62,2.39-5.1.29-10.42-.07-14.89-2.29s-7.83-6.68-7.2-11.23c.91-6.61,9-10.18,16.25-11.72s15.41-2.69,19.75-8.09a33.45,33.45,0,0,0,2.83-4.64c4-7.15,10.76-13.34,19.24-15.8s18.72-.62,24.46,5.52c2.8,3,4.44,6.8,7.44,9.65,6.3,6,17.06,6.16,25.65,3.33s15.91-8.07,24-12,17.85-6.4,26.32-3.27c6,6.24,4.64,17-2.71,21.87S223.24,367.29,216.1,372.63Z" transform="translate(-70.65 -46.17)"/><path class="cls-8" d="M525.08,312.27a4.24,4.24,0,0,1,1.06,4.57,1.11,1.11,0,0,1-1.46.55,1.13,1.13,0,0,1-.55-1.46,1.92,1.92,0,0,0-.45-1.95,1.13,1.13,0,0,1-.16-1.55,1.11,1.11,0,0,1,1.56-.16Z" transform="translate(-70.65 -46.17)"/><path class="cls-8" d="M522.59,316.93l-.8.57a1.1,1.1,0,0,1-1.27-1.8l.8-.57a1.1,1.1,0,0,1,1.27,1.8Z" transform="translate(-70.65 -46.17)"/><path class="cls-8" d="M517.1,315.62A2.76,2.76,0,0,1,515,314a1.1,1.1,0,0,1,.66-1.41,1.12,1.12,0,0,1,1.41.66c-.06-.1-.05-.09,0,0s-.14-.11.1.09a.44.44,0,0,0,.27.11,1.11,1.11,0,0,1,.9,1.27,1.12,1.12,0,0,1-1.28.9Z" transform="translate(-70.65 -46.17)"/><path class="cls-8" d="M518,311a4.51,4.51,0,0,0-.92-1.64,1.12,1.12,0,0,1-.16-1.55,1.1,1.1,0,0,1,1.55-.15,6.83,6.83,0,0,1,1.6,2.59A1.1,1.1,0,0,1,518,311Z" transform="translate(-70.65 -46.17)"/><path class="cls-8" d="M512.43,309.56l-1.27-1.8a1.1,1.1,0,0,1,1.8-1.27l1.27,1.8a1.1,1.1,0,0,1-1.8,1.27Z" transform="translate(-70.65 -46.17)"/><path class="cls-8" d="M511.19,314.81a8.69,8.69,0,0,0-2.92,2.57c-.84,1.16-2.54-.25-1.71-1.39a10.22,10.22,0,0,1,3.36-3c1.23-.68,2.52,1.11,1.27,1.8Z" transform="translate(-70.65 -46.17)"/><path class="cls-8" d="M506.31,313.36a5.72,5.72,0,0,1-2.6-2.14c-.78-1.18,1-2.45,1.8-1.27a3.65,3.65,0,0,0,1.72,1.41c1.32.54.39,2.54-.92,2Z" transform="translate(-70.65 -46.17)"/><path class="cls-8" d="M517.49,320.63a4.38,4.38,0,0,0-.72,2.77,1.1,1.1,0,0,1-1.27.9,1.12,1.12,0,0,1-.9-1.27,6,6,0,0,1,1.18-3.8c.94-1.07,2.64.33,1.71,1.4Z" transform="translate(-70.65 -46.17)"/><path class="cls-8" d="M511.84,321.24a4.58,4.58,0,0,0-1.79,1.62,1.13,1.13,0,0,1-1.46.55A1.11,1.11,0,0,1,508,322a6.63,6.63,0,0,1,2.53-2.51,1.11,1.11,0,0,1,1.53.27,1.09,1.09,0,0,1-.26,1.53Z" transform="translate(-70.65 -46.17)"/><path class="cls-8" d="M503.2,322.38c-.69-.81-1.38-1.62-2.08-2.42a1.1,1.1,0,1,1,1.8-1.27c.7.8,1.39,1.61,2.08,2.42a1.09,1.09,0,0,1-.26,1.53,1.14,1.14,0,0,1-1.54-.26Z" transform="translate(-70.65 -46.17)"/><path class="cls-8" d="M502.6,316.66a1.1,1.1,0,0,1-1.27-1.8,1.1,1.1,0,0,1,1.27,1.8Z" transform="translate(-70.65 -46.17)"/><path class="cls-8" d="M497.19,318.27c-.29,1-.58,2-.88,3a1.12,1.12,0,0,1-1.27.9,1.1,1.1,0,0,1-.9-1.27c.3-1,.59-2,.88-3a1.12,1.12,0,0,1,1.27-.9,1.09,1.09,0,0,1,.9,1.27Z" transform="translate(-70.65 -46.17)"/><path class="cls-8" d="M503.09,325.16a7.6,7.6,0,0,1,1.23,3.38,1.1,1.1,0,0,1-2.2.19,5.11,5.11,0,0,0-.83-2.3c-.79-1.18,1-2.46,1.8-1.27Z" transform="translate(-70.65 -46.17)"/><path class="cls-8" d="M510.66,327l1.56,2.2a1.1,1.1,0,0,1-1.8,1.28l-1.56-2.2a1.1,1.1,0,0,1,1.8-1.28Z" transform="translate(-70.65 -46.17)"/><path class="cls-8" d="M518.62,324a28.7,28.7,0,0,0,3.89-2.47c1.14-.85,2.41.95,1.27,1.8a32.4,32.4,0,0,1-4.41,2.74c-1.26.66-2-1.42-.75-2.07Z" transform="translate(-70.65 -46.17)"/><path class="cls-8" d="M526.37,323.68c1.22,1.88.09,3.82-1.29,5.21a1.13,1.13,0,0,1-1.56.16,1.11,1.11,0,0,1-.15-1.55c.55-.56,1.78-1.66,1.2-2.55-.78-1.19,1-2.46,1.8-1.27Z" transform="translate(-70.65 -46.17)"/><path class="cls-8" d="M521.74,329.26a1.29,1.29,0,0,0,.12,1.23c.8,1.17-1,2.45-1.8,1.27a3.52,3.52,0,0,1-.32-3.41c.56-1.31,2.56-.39,2,.91Z" transform="translate(-70.65 -46.17)"/><path class="cls-8" d="M514.61,328.56a1.1,1.1,0,0,1-1.27-1.8,1.1,1.1,0,0,1,1.27,1.8Z" transform="translate(-70.65 -46.17)"/><path class="cls-8" d="M528.54,321.12a1.1,1.1,0,0,1-1.27-1.8,1.1,1.1,0,0,1,1.27,1.8Z" transform="translate(-70.65 -46.17)"/><path class="cls-8" d="M518.63,333.43a17.35,17.35,0,0,1-3.48,4.33c-1,1-2.31-.85-1.28-1.8a13.88,13.88,0,0,0,2.76-3.44c.7-1.23,2.71-.32,2,.91Z" transform="translate(-70.65 -46.17)"/><path class="cls-8" d="M510.75,335.54a4.09,4.09,0,0,1-4.24-1.41,1.1,1.1,0,1,1,1.8-1.27,1.79,1.79,0,0,0,1.69.6,1.13,1.13,0,0,1,1.41.67,1.11,1.11,0,0,1-.66,1.41Z" transform="translate(-70.65 -46.17)"/><path class="cls-8" d="M502.71,335.19a4.46,4.46,0,0,1-3.79-.74,1.11,1.11,0,0,1,1.4-1.71,1.93,1.93,0,0,0,.78.36l.24,0c.33.05-.14,0,.2,0h.24s.36-.07.19,0a1.12,1.12,0,0,1,1.41.67,1.1,1.1,0,0,1-.67,1.41Z" transform="translate(-70.65 -46.17)"/><path class="cls-8" d="M498.24,326.5l1.32,1.46a1.09,1.09,0,0,1-.26,1.53,1.14,1.14,0,0,1-1.54-.26l-1.32-1.46a1.1,1.1,0,0,1,.26-1.54,1.13,1.13,0,0,1,1.54.27Z" transform="translate(-70.65 -46.17)"/><path class="cls-8" d="M494.43,333.52a1.1,1.1,0,0,1-1.27-1.8,1.1,1.1,0,0,1,1.27,1.8Z" transform="translate(-70.65 -46.17)"/><path class="cls-8" d="M508.2,340.29a1.1,1.1,0,0,1-1.27-1.8,1.1,1.1,0,0,1,1.27,1.8Z" transform="translate(-70.65 -46.17)"/><path class="cls-8" d="M519.09,336.66c1.61-1,3.4-.44,5,.34,1.28.63.36,2.63-.91,2-.75-.37-2-1.06-2.8-.55-1.2.75-2.48-1-1.27-1.8Z" transform="translate(-70.65 -46.17)"/><path class="cls-8" d="M524.75,334a1.11,1.11,0,0,1-1.28-1.8,1.11,1.11,0,0,1,1.28,1.8Z" transform="translate(-70.65 -46.17)"/><path class="cls-8" d="M516.2,344.83a1.1,1.1,0,0,1-1.27-1.8,1.1,1.1,0,0,1,1.27,1.8Z" transform="translate(-70.65 -46.17)"/><path class="cls-8" d="M510.76,341.77a7.33,7.33,0,0,0-4.06,1.06c-1.21.73-2.49-1.06-1.28-1.81a9.48,9.48,0,0,1,5.15-1.44c1.41,0,1.61,2.22.19,2.19Z" transform="translate(-70.65 -46.17)"/><path class="cls-7" d="M658.9,327.51a4.22,4.22,0,0,1,1.06,4.57,1.1,1.1,0,0,1-1.46.55,1.13,1.13,0,0,1-.54-1.46,1.94,1.94,0,0,0-.45-1.95,1.13,1.13,0,0,1-.16-1.55,1.1,1.1,0,0,1,1.55-.16Z" transform="translate(-70.65 -46.17)"/><path class="cls-7" d="M656.42,332.17l-.8.57a1.1,1.1,0,0,1-1.28-1.8l.8-.57a1.11,1.11,0,0,1,1.28,1.8Z" transform="translate(-70.65 -46.17)"/><path class="cls-7" d="M650.93,330.86a2.76,2.76,0,0,1-2.08-1.64,1.09,1.09,0,0,1,.66-1.41,1.12,1.12,0,0,1,1.41.66c-.06-.1,0-.09,0,0s-.14-.11.09.1a.52.52,0,0,0,.27.1,1.1,1.1,0,0,1,.9,1.27,1.11,1.11,0,0,1-1.27.9Z" transform="translate(-70.65 -46.17)"/><path class="cls-7" d="M651.84,326.21a4.24,4.24,0,0,0-.92-1.64,1.13,1.13,0,0,1-.15-1.55,1.1,1.1,0,0,1,1.55-.15,6.83,6.83,0,0,1,1.6,2.59,1.11,1.11,0,0,1-2.08.75Z" transform="translate(-70.65 -46.17)"/><path class="cls-7" d="M646.26,324.8,645,323a1.1,1.1,0,0,1,1.8-1.27l1.27,1.8a1.1,1.1,0,0,1-1.8,1.27Z" transform="translate(-70.65 -46.17)"/><path class="cls-7" d="M645,330.05a8.82,8.82,0,0,0-2.93,2.57c-.83,1.16-2.53-.25-1.7-1.39a10.22,10.22,0,0,1,3.36-3c1.23-.68,2.51,1.11,1.27,1.8Z" transform="translate(-70.65 -46.17)"/><path class="cls-7" d="M640.14,328.6a5.67,5.67,0,0,1-2.6-2.14c-.78-1.18,1-2.45,1.8-1.27a3.63,3.63,0,0,0,1.71,1.41c1.32.54.4,2.54-.91,2Z" transform="translate(-70.65 -46.17)"/><path class="cls-7" d="M651.31,335.87a4.44,4.44,0,0,0-.71,2.77,1.11,1.11,0,0,1-2.18-.37,6.12,6.12,0,0,1,1.19-3.8c.93-1.07,2.64.33,1.7,1.4Z" transform="translate(-70.65 -46.17)"/><path class="cls-7" d="M645.66,336.48a4.58,4.58,0,0,0-1.79,1.62,1.12,1.12,0,0,1-1.46.55,1.11,1.11,0,0,1-.54-1.46,6.67,6.67,0,0,1,2.52-2.51,1.12,1.12,0,0,1,1.54.27,1.09,1.09,0,0,1-.27,1.53Z" transform="translate(-70.65 -46.17)"/><path class="cls-7" d="M637,337.62,635,335.2a1.11,1.11,0,0,1,.26-1.54,1.13,1.13,0,0,1,1.54.27l2.08,2.42a1.09,1.09,0,0,1-.26,1.53,1.13,1.13,0,0,1-1.54-.26Z" transform="translate(-70.65 -46.17)"/><path class="cls-7" d="M636.43,331.9a1.1,1.1,0,0,1-1.27-1.8,1.1,1.1,0,0,1,1.27,1.8Z" transform="translate(-70.65 -46.17)"/><path class="cls-7" d="M631,333.51c-.29,1-.58,2-.88,3a1.12,1.12,0,0,1-1.27.9,1.1,1.1,0,0,1-.9-1.27c.29-1,.59-2,.88-3a1.12,1.12,0,0,1,1.27-.9,1.1,1.1,0,0,1,.9,1.27Z" transform="translate(-70.65 -46.17)"/><path class="cls-7" d="M636.92,340.4a7.6,7.6,0,0,1,1.23,3.38,1.1,1.1,0,0,1-2.2.19,5.11,5.11,0,0,0-.83-2.3c-.79-1.18,1-2.46,1.8-1.27Z" transform="translate(-70.65 -46.17)"/><path class="cls-7" d="M644.49,342.24l1.55,2.2a1.1,1.1,0,0,1-1.8,1.28c-.51-.74-1-1.47-1.55-2.2a1.11,1.11,0,0,1,1.8-1.28Z" transform="translate(-70.65 -46.17)"/><path class="cls-7" d="M652.45,339.2a29.34,29.34,0,0,0,3.89-2.47c1.14-.85,2.4.95,1.27,1.8a31.91,31.91,0,0,1-4.42,2.74c-1.25.66-2-1.42-.74-2.07Z" transform="translate(-70.65 -46.17)"/><path class="cls-7" d="M660.19,338.92c1.23,1.88.1,3.82-1.29,5.21a1.1,1.1,0,1,1-1.7-1.39c.55-.56,1.77-1.66,1.19-2.55-.77-1.19,1-2.46,1.8-1.27Z" transform="translate(-70.65 -46.17)"/><path class="cls-7" d="M655.57,344.5a1.26,1.26,0,0,0,.12,1.23c.8,1.17-1,2.45-1.8,1.27a3.55,3.55,0,0,1-.33-3.41,1.1,1.1,0,0,1,2,.91Z" transform="translate(-70.65 -46.17)"/><path class="cls-7" d="M648.44,343.8a1.1,1.1,0,0,1-1.27-1.8,1.1,1.1,0,0,1,1.27,1.8Z" transform="translate(-70.65 -46.17)"/><path class="cls-7" d="M662.37,336.36a1.1,1.1,0,0,1-1.27-1.8,1.1,1.1,0,0,1,1.27,1.8Z" transform="translate(-70.65 -46.17)"/><path class="cls-7" d="M652.46,348.67A17.39,17.39,0,0,1,649,353c-1.05,1-2.3-.85-1.27-1.8a14.35,14.35,0,0,0,2.76-3.44c.7-1.23,2.71-.32,2,.91Z" transform="translate(-70.65 -46.17)"/><path class="cls-7" d="M644.58,350.78a4.08,4.08,0,0,1-4.24-1.41,1.1,1.1,0,1,1,1.8-1.27,1.78,1.78,0,0,0,1.69.6,1.13,1.13,0,0,1,1.41.67,1.11,1.11,0,0,1-.66,1.41Z" transform="translate(-70.65 -46.17)"/><path class="cls-7" d="M636.54,350.43a4.46,4.46,0,0,1-3.79-.74,1.1,1.1,0,1,1,1.39-1.71,2,2,0,0,0,.79.36l.24,0c.33.05-.15,0,.19,0h.24s.36-.07.2,0a1.13,1.13,0,0,1,1.41.67,1.11,1.11,0,0,1-.67,1.41Z" transform="translate(-70.65 -46.17)"/><path class="cls-7" d="M632.06,341.74c.45.48.89,1,1.33,1.46a1.09,1.09,0,0,1-.26,1.53,1.14,1.14,0,0,1-1.54-.26c-.44-.49-.88-1-1.33-1.46a1.1,1.1,0,1,1,1.8-1.27Z" transform="translate(-70.65 -46.17)"/><path class="cls-7" d="M628.26,348.76A1.11,1.11,0,0,1,627,347a1.11,1.11,0,0,1,1.28,1.8Z" transform="translate(-70.65 -46.17)"/><path class="cls-7" d="M642,355.53a1.1,1.1,0,0,1-1.27-1.8,1.1,1.1,0,0,1,1.27,1.8Z" transform="translate(-70.65 -46.17)"/><path class="cls-7" d="M652.92,351.9c1.61-1,3.4-.44,5,.34,1.27.63.36,2.63-.91,2-.75-.37-2-1.06-2.8-.55-1.2.75-2.48-1-1.27-1.8Z" transform="translate(-70.65 -46.17)"/><path class="cls-7" d="M658.57,349.24a1.1,1.1,0,0,1-1.27-1.8,1.1,1.1,0,0,1,1.27,1.8Z" transform="translate(-70.65 -46.17)"/><path class="cls-7" d="M650,360.07a1.1,1.1,0,0,1-1.27-1.8,1.1,1.1,0,0,1,1.27,1.8Z" transform="translate(-70.65 -46.17)"/><path class="cls-7" d="M644.59,357a7.39,7.39,0,0,0-4.07,1.06c-1.2.73-2.48-1.06-1.27-1.81a9.48,9.48,0,0,1,5.15-1.44c1.4,0,1.61,2.22.19,2.19Z" transform="translate(-70.65 -46.17)"/><path class="cls-10" d="M149.23,344.45a18.67,18.67,0,0,0,.58-1.79c3.46-13.45-14.94-31.42,3-41.59,2.83-1.61,6.32-2.48,8.65-4.58,3.66-3.29,3.28-8.52,1.44-12.74s-4.9-8.09-6-12.48c-1.8-7,2.08-14.85,9.33-18.73,5.87-3.15,13.73-4,17.93-8.66,3.73-4.14,3.23-10,.92-14.86s-6.15-9-8.88-13.66a33.35,33.35,0,0,1-3.87-24.47c1.57-6.73,5.72-13.45,12.95-16.7,4.79-2.16,10.43-2.57,15.87-2.46q2,0,4,.21c4.62.38,9.17,1.34,12.92,3.55a17.53,17.53,0,0,1,8.66,16.26c-.46,6.19-4.1,12-9.13,16.56-2.54,2.29-5.59,4.52-6.34,7.58-1.41,5.71,5.5,10.1,9.87,14.63a24,24,0,0,1,5.8,22.7c-2,7.82-7.45,14.83-14.37,20.35-6.46,5.15-15,10.47-14.42,17.92.35,4.61,4.29,8.47,8.53,11.44s9,5.51,12.25,9.27a15.85,15.85,0,0,1-.86,21.46c-4,4.12-10,6.48-15.92,8.49-9.63,3.29-17.7,6.87-15.5,17.08.57,2.66,2,5.26,1.66,7.95-.63,5.1-7.17,8.23-13.22,9.05-7.71,1-16-.36-22.1-4.45s-9.57-11-8-17.38C145.76,350.94,148,347.81,149.23,344.45Z" transform="translate(-70.65 -46.17)"/><path class="cls-5" d="M93.79,242.05c-3.81-5.81-2.16-14,3.81-18.83a18.61,18.61,0,0,1,4.07-2.48c5.74-2.61,13-2.75,18.33,0a13.12,13.12,0,0,1,5.1,4.38,18.49,18.49,0,0,1,2.25,7.13c.91,5.31.19,18.48,5.74,21.36,4,2.09,9.28,2,13.51,3.81,5.53,2.37,8.53,8.14,7,13.4-1.83,6.14-9.09,11.61-7.4,17.62,1.4,5,8.12,7,13.81,8.72,9.2,2.78,19,8.07,19.23,16.45.19,6.92-6,10.8-9.51,16.48-3.3,5.32-1.62,11,1,15.93,3.3,6.25,6.78,13.18-.4,19.14-4.2,3.49-10.09,5-15.78,5.85-8.1,1.15-16.6,1-23.81-1.84-9.69-3.83-18-16.24-12-25.61,2-3.1,5.12-6,5.14-9.47s-3-6.07-6.24-7.91-6.93-3.27-9.38-5.83a10,10,0,0,1-1.07-12.48c2.6-4,8-7,8.4-11.49.75-7.66-13.33-10.82-13.49-18.46-.11-5.31,6.67-9.34,7.93-14.61,1.06-4.44-2-8.64-5.69-11.73S96.3,245.88,93.79,242.05Z" transform="translate(-70.65 -46.17)"/><path class="cls-7" d="M128.85,364.36a4.23,4.23,0,0,1-2.77,3.78,1.12,1.12,0,0,1-1.37-.75,1.13,1.13,0,0,1,.75-1.37,1.94,1.94,0,0,0,1.19-1.61,1.12,1.12,0,0,1,1.07-1.13,1.11,1.11,0,0,1,1.13,1.08Z" transform="translate(-70.65 -46.17)"/><path class="cls-7" d="M123.7,365.51l-1-.24a1.1,1.1,0,0,1,.53-2.14l1,.24a1.1,1.1,0,0,1-.53,2.14Z" transform="translate(-70.65 -46.17)"/><path class="cls-7" d="M121.12,360.49a2.75,2.75,0,0,1-.12-2.65,1.1,1.1,0,0,1,1.5-.41,1.12,1.12,0,0,1,.42,1.5q.06-.17,0,0c-.08.29,0-.18,0,.13a.45.45,0,0,0,.1.27,1.1,1.1,0,0,1-1.89,1.13Z" transform="translate(-70.65 -46.17)"/><path class="cls-7" d="M125.24,358.16a4.55,4.55,0,0,0,.64-1.77,1.13,1.13,0,0,1,1.08-1.13,1.1,1.1,0,0,1,1.12,1.08,6.91,6.91,0,0,1-.92,2.9c-.73,1.22-2.66.14-1.92-1.08Z" transform="translate(-70.65 -46.17)"/><path class="cls-7" d="M122.67,353c.18-.71.36-1.42.53-2.13a1.1,1.1,0,0,1,2.14.53l-.53,2.14a1.1,1.1,0,0,1-2.14-.54Z" transform="translate(-70.65 -46.17)"/><path class="cls-7" d="M117.88,355.48a8.78,8.78,0,0,0-3.86-.54c-1.42.12-1.46-2.09,0-2.2a10.17,10.17,0,0,1,4.44.6c1.32.49.8,2.64-.53,2.14Z" transform="translate(-70.65 -46.17)"/><path class="cls-7" d="M115.79,350.84a5.78,5.78,0,0,1-.07-3.37c.39-1.36,2.53-.83,2.14.54a3.62,3.62,0,0,0,0,2.21c.45,1.36-1.67,2-2.12.62Z" transform="translate(-70.65 -46.17)"/><path class="cls-7" d="M117.56,364.05a4.39,4.39,0,0,0-2.56,1.26,1.11,1.11,0,0,1-1.52-.38,1.14,1.14,0,0,1,.38-1.51,6,6,0,0,1,3.65-1.57,1.1,1.1,0,0,1,0,2.2Z" transform="translate(-70.65 -46.17)"/><path class="cls-7" d="M113.42,360.16a4.59,4.59,0,0,0-2.4-.3,1.12,1.12,0,0,1-1.36-.75,1.1,1.1,0,0,1,.75-1.36A6.61,6.61,0,0,1,114,358a1.12,1.12,0,0,1,.8,1.33,1.11,1.11,0,0,1-1.34.8Z" transform="translate(-70.65 -46.17)"/><path class="cls-7" d="M106.93,354.36l.48-3.16a1.1,1.1,0,0,1,1.34-.8,1.13,1.13,0,0,1,.8,1.34l-.48,3.15a1.1,1.1,0,0,1-1.34.8,1.12,1.12,0,0,1-.8-1.33Z" transform="translate(-70.65 -46.17)"/><path class="cls-7" d="M110.88,350.17a1.1,1.1,0,0,1,.54-2.14,1.1,1.1,0,0,1-.54,2.14Z" transform="translate(-70.65 -46.17)"/><path class="cls-7" d="M106.13,347.12l-2.86,1.3a1.13,1.13,0,0,1-1.51-.38,1.1,1.1,0,0,1,.38-1.51l2.86-1.3a1.13,1.13,0,0,1,1.51.38,1.1,1.1,0,0,1-.38,1.51Z" transform="translate(-70.65 -46.17)"/><path class="cls-7" d="M104.75,356.08a7.49,7.49,0,0,1-1.77,3.14c-1,1-2.54-.5-1.57-1.54a5.22,5.22,0,0,0,1.2-2.14,1.1,1.1,0,0,1,2.14.54Z" transform="translate(-70.65 -46.17)"/><path class="cls-7" d="M108.28,363c-.21.87-.43,1.74-.65,2.61a1.1,1.1,0,0,1-2.14-.54l.66-2.61a1.1,1.1,0,0,1,2.13.54Z" transform="translate(-70.65 -46.17)"/><path class="cls-7" d="M115.78,367.08a29.5,29.5,0,0,0,4.41,1.34,1.1,1.1,0,0,1-.54,2.13,33.14,33.14,0,0,1-5-1.55c-1.31-.53-.21-2.44,1.09-1.92Z" transform="translate(-70.65 -46.17)"/><path class="cls-7" d="M121,372.77c-.63,2.15-2.84,2.56-4.8,2.42a1.11,1.11,0,0,1-1.12-1.07,1.1,1.1,0,0,1,1.07-1.13c.79.05,2.41.27,2.71-.76.4-1.36,2.54-.82,2.14.54Z" transform="translate(-70.65 -46.17)"/><path class="cls-7" d="M113.79,372.9a1.29,1.29,0,0,0-.85.89,1.1,1.1,0,0,1-2.14-.53,3.51,3.51,0,0,1,2.38-2.47,1.1,1.1,0,0,1,.61,2.11Z" transform="translate(-70.65 -46.17)"/><path class="cls-7" d="M109.68,367a1.1,1.1,0,0,1,.53-2.14,1.1,1.1,0,0,1-.53,2.14Z" transform="translate(-70.65 -46.17)"/><path class="cls-7" d="M124.4,372.76a1.1,1.1,0,0,1,.54-2.14,1.1,1.1,0,0,1-.54,2.14Z" transform="translate(-70.65 -46.17)"/><path class="cls-7" d="M108.61,373.26a17.59,17.59,0,0,1-5.56.18c-1.41-.17-.86-2.31.53-2.14a14.49,14.49,0,0,0,4.41-.15c1.39-.27,2,1.85.62,2.11Z" transform="translate(-70.65 -46.17)"/><path class="cls-7" d="M101.87,368.66a4.09,4.09,0,0,1-1.69-4.14,1.1,1.1,0,0,1,1.33-.8,1.12,1.12,0,0,1,.8,1.34,1.82,1.82,0,0,0,.64,1.68,1.12,1.12,0,0,1,.42,1.5,1.11,1.11,0,0,1-1.5.42Z" transform="translate(-70.65 -46.17)"/><path class="cls-7" d="M96.9,362.33A4.39,4.39,0,0,1,95,359a1.1,1.1,0,0,1,1.07-1.13,1.13,1.13,0,0,1,1.13,1.08,2,2,0,0,0,.24.83,1.37,1.37,0,0,0,.13.2c.18.29-.11-.09.11.16.06.06.11.12.17.17s.28.24.14.14a1.12,1.12,0,0,1,.42,1.5,1.09,1.09,0,0,1-1.5.41Z" transform="translate(-70.65 -46.17)"/><path class="cls-7" d="M100.57,353.27l-.24,2A1.11,1.11,0,0,1,99,356a1.13,1.13,0,0,1-.8-1.34l.24-1.95a1.11,1.11,0,0,1,1.34-.81,1.13,1.13,0,0,1,.8,1.34Z" transform="translate(-70.65 -46.17)"/><path class="cls-7" d="M92.76,355a1.1,1.1,0,0,1,.54-2.13,1.1,1.1,0,0,1-.54,2.13Z" transform="translate(-70.65 -46.17)"/><path class="cls-7" d="M96.61,369.82a1.1,1.1,0,0,1,.53-2.14,1.1,1.1,0,0,1-.53,2.14Z" transform="translate(-70.65 -46.17)"/><path class="cls-7" d="M106.45,375.71c1.81.57,2.55,2.3,3,4,.36,1.38-1.76,2-2.11.62-.21-.81-.49-2.19-1.42-2.48-1.35-.42-.82-2.56.54-2.14Z" transform="translate(-70.65 -46.17)"/><path class="cls-7" d="M112.16,378.27a1.1,1.1,0,0,1,.54-2.14,1.1,1.1,0,0,1-.54,2.14Z" transform="translate(-70.65 -46.17)"/><path class="cls-7" d="M98.38,378.85a1.1,1.1,0,0,1,.54-2.14,1.1,1.1,0,0,1-.54,2.14Z" transform="translate(-70.65 -46.17)"/><path class="cls-7" d="M97.15,372.73a7.4,7.4,0,0,0-3.45-2.4c-1.35-.43-.82-2.57.54-2.14a9.54,9.54,0,0,1,4.45,3c.9,1.08-.63,2.67-1.54,1.58Z" transform="translate(-70.65 -46.17)"/><path class="cls-8" d="M195.33,203.38a4.24,4.24,0,0,1-2.78,3.79,1.1,1.1,0,0,1-1.36-.75,1.12,1.12,0,0,1,.75-1.37,1.91,1.91,0,0,0,1.18-1.62,1.12,1.12,0,0,1,1.08-1.12,1.1,1.1,0,0,1,1.13,1.07Z" transform="translate(-70.65 -46.17)"/><path class="cls-8" d="M190.17,204.53l-.95-.23a1.1,1.1,0,0,1,.54-2.14l1,.24a1.1,1.1,0,0,1-.54,2.13Z" transform="translate(-70.65 -46.17)"/><path class="cls-8" d="M187.59,199.52a2.75,2.75,0,0,1-.11-2.65,1.1,1.1,0,0,1,1.5-.42,1.13,1.13,0,0,1,.42,1.5c0-.11,0-.1,0,0-.08.3,0-.17,0,.14a.5.5,0,0,0,.1.27,1.1,1.1,0,0,1-1.89,1.13Z" transform="translate(-70.65 -46.17)"/><path class="cls-8" d="M191.71,197.18a4.16,4.16,0,0,0,.64-1.77,1.13,1.13,0,0,1,1.08-1.12,1.1,1.1,0,0,1,1.13,1.07,7,7,0,0,1-.93,2.91c-.73,1.21-2.65.13-1.92-1.09Z" transform="translate(-70.65 -46.17)"/><path class="cls-8" d="M189.14,192l.54-2.14a1.1,1.1,0,0,1,2.14.54l-.54,2.14a1.1,1.1,0,0,1-2.14-.54Z" transform="translate(-70.65 -46.17)"/><path class="cls-8" d="M184.35,194.51a8.74,8.74,0,0,0-3.86-.54c-1.42.11-1.46-2.09-.05-2.21a10.37,10.37,0,0,1,4.45.61c1.31.49.79,2.63-.54,2.14Z" transform="translate(-70.65 -46.17)"/><path class="cls-8" d="M182.27,189.87a5.7,5.7,0,0,1-.07-3.37,1.1,1.1,0,0,1,2.13.54,3.63,3.63,0,0,0,.06,2.21c.44,1.35-1.68,2-2.12.62Z" transform="translate(-70.65 -46.17)"/><path class="cls-8" d="M184,203.08a4.39,4.39,0,0,0-2.57,1.26A1.1,1.1,0,0,1,180,204a1.12,1.12,0,0,1,.38-1.51,6,6,0,0,1,3.65-1.58c1.42,0,1.47,2.22,0,2.21Z" transform="translate(-70.65 -46.17)"/><path class="cls-8" d="M179.89,199.19a4.54,4.54,0,0,0-2.39-.3,1.14,1.14,0,0,1-1.37-.75,1.11,1.11,0,0,1,.75-1.37,6.7,6.7,0,0,1,3.55.28,1.13,1.13,0,0,1,.8,1.34,1.1,1.1,0,0,1-1.34.8Z" transform="translate(-70.65 -46.17)"/><path class="cls-8" d="M173.41,193.38c.16-1,.31-2.1.47-3.15a1.11,1.11,0,0,1,1.34-.81,1.13,1.13,0,0,1,.8,1.34l-.48,3.16a1.1,1.1,0,0,1-1.33.8,1.12,1.12,0,0,1-.8-1.34Z" transform="translate(-70.65 -46.17)"/><path class="cls-8" d="M177.35,189.2a1.1,1.1,0,0,1,.54-2.14,1.1,1.1,0,0,1-.54,2.14Z" transform="translate(-70.65 -46.17)"/><path class="cls-8" d="M172.6,186.15l-2.85,1.29a1.12,1.12,0,0,1-1.51-.38,1.1,1.1,0,0,1,.37-1.51l2.86-1.29a1.12,1.12,0,0,1,1.51.38,1.1,1.1,0,0,1-.38,1.51Z" transform="translate(-70.65 -46.17)"/><path class="cls-8" d="M171.22,195.11a7.59,7.59,0,0,1-1.76,3.14c-1,1-2.55-.51-1.58-1.55a4.92,4.92,0,0,0,1.2-2.13,1.1,1.1,0,0,1,2.14.54Z" transform="translate(-70.65 -46.17)"/><path class="cls-8" d="M174.76,202.05l-.66,2.62a1.1,1.1,0,0,1-2.14-.54l.66-2.61a1.1,1.1,0,0,1,2.14.53Z" transform="translate(-70.65 -46.17)"/><path class="cls-8" d="M182.25,206.1a27.33,27.33,0,0,0,4.41,1.34,1.1,1.1,0,0,1-.53,2.14,31.39,31.39,0,0,1-5-1.56c-1.32-.52-.22-2.44,1.08-1.92Z" transform="translate(-70.65 -46.17)"/><path class="cls-8" d="M187.52,211.8c-.64,2.15-2.84,2.56-4.8,2.42a1.13,1.13,0,0,1-1.13-1.08,1.11,1.11,0,0,1,1.08-1.13c.78.06,2.41.27,2.71-.75.4-1.36,2.54-.83,2.14.54Z" transform="translate(-70.65 -46.17)"/><path class="cls-8" d="M180.27,211.93a1.26,1.26,0,0,0-.86.89,1.1,1.1,0,0,1-2.13-.54,3.55,3.55,0,0,1,2.37-2.47,1.11,1.11,0,0,1,.62,2.12Z" transform="translate(-70.65 -46.17)"/><path class="cls-8" d="M176.15,206.07a1.1,1.1,0,0,1,.54-2.14,1.1,1.1,0,0,1-.54,2.14Z" transform="translate(-70.65 -46.17)"/><path class="cls-8" d="M190.88,211.78a1.1,1.1,0,0,1,.53-2.14,1.1,1.1,0,0,1-.53,2.14Z" transform="translate(-70.65 -46.17)"/><path class="cls-8" d="M175.08,212.29a17.58,17.58,0,0,1-5.56.18c-1.41-.18-.86-2.31.54-2.14a14.12,14.12,0,0,0,4.4-.16c1.39-.26,2,1.85.62,2.12Z" transform="translate(-70.65 -46.17)"/><path class="cls-8" d="M168.34,207.68a4.08,4.08,0,0,1-1.69-4.13,1.11,1.11,0,0,1,1.34-.8,1.12,1.12,0,0,1,.8,1.34,1.75,1.75,0,0,0,.64,1.67,1.14,1.14,0,0,1,.41,1.51,1.1,1.1,0,0,1-1.5.41Z" transform="translate(-70.65 -46.17)"/><path class="cls-8" d="M163.37,201.36a4.46,4.46,0,0,1-1.91-3.36,1.1,1.1,0,1,1,2.2-.05,2.23,2.23,0,0,0,.37,1c.18.29-.1-.1.12.16l.16.17s.29.23.15.13a1.13,1.13,0,0,1,.41,1.5,1.1,1.1,0,0,1-1.5.42Z" transform="translate(-70.65 -46.17)"/><path class="cls-8" d="M167.05,192.3l-.25,2a1.1,1.1,0,0,1-1.34.8,1.14,1.14,0,0,1-.8-1.34c.09-.65.17-1.3.25-2a1.1,1.1,0,0,1,1.33-.8,1.14,1.14,0,0,1,.81,1.34Z" transform="translate(-70.65 -46.17)"/><path class="cls-8" d="M159.23,194a1.1,1.1,0,0,1,.54-2.14,1.1,1.1,0,0,1-.54,2.14Z" transform="translate(-70.65 -46.17)"/><path class="cls-8" d="M163.08,208.84a1.1,1.1,0,0,1,.54-2.13,1.1,1.1,0,0,1-.54,2.13Z" transform="translate(-70.65 -46.17)"/><path class="cls-8" d="M172.92,214.74c1.82.57,2.56,2.29,3,4,.35,1.37-1.77,2-2.12.61-.21-.8-.49-2.18-1.41-2.47-1.35-.42-.82-2.56.53-2.14Z" transform="translate(-70.65 -46.17)"/><path class="cls-8" d="M178.63,217.29a1.1,1.1,0,0,1,.54-2.13,1.1,1.1,0,0,1-.54,2.13Z" transform="translate(-70.65 -46.17)"/><path class="cls-8" d="M164.85,217.87a1.1,1.1,0,0,1,.54-2.13,1.1,1.1,0,0,1-.54,2.13Z" transform="translate(-70.65 -46.17)"/><path class="cls-8" d="M163.62,211.75a7.4,7.4,0,0,0-3.45-2.39c-1.34-.44-.81-2.58.54-2.14a9.37,9.37,0,0,1,4.45,3c.9,1.08-.63,2.67-1.54,1.57Z" transform="translate(-70.65 -46.17)"/></g><ellipse class="cls-11" cx="237.37" cy="390.28" rx="139.97" ry="22.01"/><ellipse class="cls-11" cx="452.08" cy="363.7" rx="61.93" ry="15.31"/><ellipse class="cls-11" cx="415.88" cy="112.72" rx="39.74" ry="33.81" transform="translate(-82.51 118.58) rotate(-22.1)"/><g class="cls-12"><path class="cls-13" d="M249.79,288.51c-7-20.53-34.94-20-51.61-27.27-11.68-5.12-22.71-14-27-26.34-5.1-14.67,4.07-29.53,15.11-38.59,11.25-9.23,26.5-13,40.77-10.86,13.77,2.08,25.87,10.19,35.68,19.68,21.44,20.71,31.35,50,48.8,73.7,7.29,9.89,16.17,18.24,27.68,22.88,13.05,5.26,28.23,5.25,42,4.28,30.63-2.15,59.83-13.27,89-22.06,30.24-9.11,62.57-16,93.94-8.67,15.41,3.6,30.45,11.2,32.22,28.55,1.5,14.74-7.92,27.35-19.9,34.72-11,6.77-23.66,7.35-35.65,11.3-9.08,3-15.71,9.62-15.24,19.62.51,10.78,9.52,20,17.59,26,9.21,6.92,20.54,10.72,31.93,11.78,9.23.86,23.72.3,30.16-7.48,5.29-6.38-2.2-13.31-7.9-15.32-9.68-3.41-17.6,5.61-22.51,12.64-7,10.08-13.57,19.64-22.85,27.86-18.13,16-41.67,25.37-65.54,28.18-25.66,3-50.11-2.88-72.82-14.73-25.21-13.16-49.43-31.08-79.1-31.09-23.5,0-42,15.5-58.47,30.47s-32.49,29.83-54.57,35.49c-12,3.09-26.29,3.8-37.74-1.71-15.06-7.24-12-26.77-6-39.34a15,15,0,0,1,2.68-3.78c4.16-4.67,11.35-.39,9,5.1-1.35,3.08-4.71,4.92-7.36,6.72-5.84,4-11.73,5.27-18.74,5.22-13.35-.09-26-4.61-38.56-8.47-17.39-5.34-39.11-9.49-53.94,3.93-.36.33.18.86.53.53,22.12-20,54.42-1.29,78.69,3.34,12.09,2.3,23.28,2.31,33.67-4.77,3.83-2.61,6.85-5.33,7.51-10.12.48-3.42-2.65-4.62-5.39-4.79-10.74-.65-13.08,19.53-13.58,26.52-.82,11.75,5.76,19.22,16.64,22.73,12.06,3.9,26.22,1.77,38-1.84,11.31-3.46,21.3-9.94,30.48-17.26,18.73-14.94,34.51-34.76,57.46-43.53,30.12-11.52,60.38,5.82,85.92,20.38,11.74,6.69,23.64,13.14,36.55,17.26a118,118,0,0,0,32.63,5.25,125.39,125.39,0,0,0,63.58-15.78,111,111,0,0,0,25.91-20c8.33-8.6,13.38-19.6,21.52-28.23,5.37-5.69,12.42-7.82,19.49-4a10.41,10.41,0,0,1,5.73,8.51c.25,5.54-6.28,8.17-10.53,9.45-13.25,4-27.9,2.22-40.48-3.1s-24.87-15.66-28.37-29.19c-4.36-16.83,13.69-22.17,26.14-24.75,21.8-4.52,44.61-17.05,44.28-42.33-.36-27.39-35.23-33-56.3-33.78-30.39-1.19-60.14,8.31-88.76,17.32-30.07,9.46-61,18.95-92.9,16.47-16.16-1.25-29.84-7.37-40.9-19.27C308,274.83,300.63,261,293.25,247.85c-12.8-22.85-26.84-46.71-51.37-58.52-21.29-10.25-46.94-4.76-62.67,12.69-7.51,8.33-11.71,19.38-9.46,30.53,2,10.06,9.82,18,17.92,23.69,9.41,6.58,20.17,9.27,31.1,12.13s23.22,6.53,29,17a21,21,0,0,1,1.33,3.31c.16.46.88.26.73-.2Z" transform="translate(-70.65 -46.17)"/></g><path class="cls-13" d="M441.72,318.66l-4.12,88.28a35.35,35.35,0,0,1-25.27,31.72h0a35.35,35.35,0,0,1-43.24-21.88l-24.62-68.09Z" transform="translate(-70.65 -46.17)"/><g class="cls-14"><polygon class="cls-13" points="370.17 291.85 371.07 272.49 365.3 274.27 370.17 291.85"/><path class="cls-13" d="M383.13,409.76,351.41,367.9l17.68,48.88a35.32,35.32,0,0,0,65.72,1.84C418.2,430.19,395.77,426.44,383.13,409.76Z" transform="translate(-70.65 -46.17)"/></g><rect class="cls-13" x="236.94" y="254.68" width="145.52" height="107.38" transform="translate(13.94 -112.41) rotate(14.12)"/><rect class="cls-15" x="237.65" y="258.68" width="145.52" height="93.74" transform="translate(13.28 -112.67) rotate(14.12)"/><circle class="cls-16" cx="390.35" cy="324.79" r="51.74" transform="matrix(0.15, -0.99, 0.99, 0.15, -59.11, 616.79)"/><rect class="cls-13" x="386.74" y="254.98" width="37.18" height="13.13" rx="5.36" transform="translate(5.41 -137.16) rotate(14.12)"/><circle class="cls-13" cx="330.61" cy="358.96" r="30.69" transform="translate(-179.88 101.36) rotate(-21.68)"/><circle class="cls-16" cx="332.56" cy="351.23" r="30.69" transform="translate(-202.71 170.56) rotate(-30.42)"/><path class="cls-16" d="M371.5,281.11,379,265.66a17.33,17.33,0,0,1,15.15-9.78h0a42.22,42.22,0,0,1,24.9,7.38l2,1.39a17.33,17.33,0,0,1,7.51,14.69l-.38,16Z" transform="translate(-70.65 -46.17)"/><path class="cls-17" d="M393,261.16a39.69,39.69,0,0,1,23.46,7l1.9,1.3a16.1,16.1,0,0,1,4.85,5.22,14.82,14.82,0,0,0-6-8.62l-1.72-1.18a36.08,36.08,0,0,0-21.34-6.33,14.83,14.83,0,0,0-12.72,7.88A16.31,16.31,0,0,1,393,261.16Z" transform="translate(-70.65 -46.17)"/><circle class="cls-16" cx="318.09" cy="275.93" r="46.87"/><circle class="cls-18" cx="318.09" cy="275.93" r="46.87"/><ellipse class="cls-18" cx="389.55" cy="324.32" rx="44.92" ry="45.54" transform="translate(-90.68 576.79) rotate(-75.88)"/><path class="cls-19" d="M426.65,300.71a44.19,44.19,0,0,1-83,28.35,44.19,44.19,0,1,0,83-28.35Z" transform="translate(-70.65 -46.17)"/><circle class="cls-13" cx="332.56" cy="351.23" r="23.91" transform="translate(-89.88 -26.91) rotate(-3.22)"/><circle class="cls-17" cx="330.74" cy="348.18" r="18.9" transform="translate(-105.87 612.98) rotate(-86.83)"/><path class="cls-16" d="M403.64,304.81a10,10,0,1,1-7.29-12.18A10,10,0,0,1,403.64,304.81Z" transform="translate(-70.65 -46.17)"/><path class="cls-17" d="M401.92,301.94a10,10,0,1,1-7.28-12.17A10,10,0,0,1,401.92,301.94Z" transform="translate(-70.65 -46.17)"/><path class="cls-20" d="M386,300.42a7.84,7.84,0,0,1,14.53-1.76,7.84,7.84,0,0,0-15.44-1.5,7.77,7.77,0,0,0,.68,5.59A7.76,7.76,0,0,1,386,300.42Z" transform="translate(-70.65 -46.17)"/><path class="cls-16" d="M422.38,330.91a10,10,0,1,1-7.29-12.18A10,10,0,0,1,422.38,330.91Z" transform="translate(-70.65 -46.17)"/><path class="cls-17" d="M420.66,328a10,10,0,1,1-7.28-12.17A10,10,0,0,1,420.66,328Z" transform="translate(-70.65 -46.17)"/><path class="cls-20" d="M404.75,326.52a7.84,7.84,0,0,1,14.53-1.76,7.84,7.84,0,1,0-14.76,4.09A8.09,8.09,0,0,1,404.75,326.52Z" transform="translate(-70.65 -46.17)"/><circle class="cls-16" cx="366.96" cy="316.97" r="10.03" transform="translate(-180.95 185.02) rotate(-30.63)"/><circle class="cls-17" cx="365.24" cy="314.1" r="10.03" transform="translate(-179.73 183.75) rotate(-30.63)"/><path class="cls-20" d="M359.06,315a7.84,7.84,0,0,1,14.53-1.76,7.84,7.84,0,1,0-14.75,4.1A8.15,8.15,0,0,1,359.06,315Z" transform="translate(-70.65 -46.17)"/><path class="cls-16" d="M393.1,346.67a10,10,0,1,1-7.28-12.18A10,10,0,0,1,393.1,346.67Z" transform="translate(-70.65 -46.17)"/><path class="cls-17" d="M391.39,343.81a10,10,0,1,1-7.28-12.18A10,10,0,0,1,391.39,343.81Z" transform="translate(-70.65 -46.17)"/><path class="cls-20" d="M375.48,342.28A7.84,7.84,0,0,1,390,340.52,7.84,7.84,0,0,0,374.57,339a7.75,7.75,0,0,0,.68,5.58A7.76,7.76,0,0,1,375.48,342.28Z" transform="translate(-70.65 -46.17)"/><path class="cls-21" d="M395.75,304.5a2.76,2.76,0,1,0-3.28,1.77A2.63,2.63,0,0,0,395.75,304.5Z" transform="translate(-70.65 -46.17)"/><path class="cls-21" d="M412.36,331.2a2.76,2.76,0,1,0-3.28,1.76A2.64,2.64,0,0,0,412.36,331.2Z" transform="translate(-70.65 -46.17)"/><path class="cls-21" d="M382,346.31a2.76,2.76,0,1,0-3.28,1.76A2.64,2.64,0,0,0,382,346.31Z" transform="translate(-70.65 -46.17)"/><path class="cls-21" d="M363.54,319.35a1.94,1.94,0,1,0-2.3,1.23A1.86,1.86,0,0,0,363.54,319.35Z" transform="translate(-70.65 -46.17)"/><path class="cls-20" d="M315.09,349.25a19,19,0,0,1,30.79-9.73,17.14,17.14,0,0,0-31.11,11.33C314.86,350.32,315,349.78,315.09,349.25Z" transform="translate(-70.65 -46.17)"/><path class="cls-20" d="M348.67,348c.11.19.24.37.34.56a2.66,2.66,0,0,0,0-.28Z" transform="translate(-70.65 -46.17)"/><g class="cls-22"><path class="cls-20" d="M344.49,353.11a15.85,15.85,0,0,1-26.81,2.94,14.33,14.33,0,0,0,26.05.33,14.07,14.07,0,0,0,1.28-4.52C344.85,352.28,344.68,352.7,344.49,353.11Z" transform="translate(-70.65 -46.17)"/><path class="cls-20" d="M316.77,348.69c-.06-.17-.13-.34-.18-.52a2,2,0,0,0,0,.24Z" transform="translate(-70.65 -46.17)"/></g><path class="cls-20" d="M400.13,285A40.24,40.24,0,0,1,412,290.14a37.19,37.19,0,0,0-14.91-7.67c-21.1-5.3-42.79,8.64-48.45,31.15-.3,1.18-.54,2.37-.74,3.56C354.72,293.69,377.73,279.34,400.13,285Z" transform="translate(-70.65 -46.17)"/><polygon class="cls-20" points="348.85 252.38 348.86 252.39 348.85 252.39 348.85 252.38"/><path class="cls-13" d="M178.26,252.37,140.11,332.1a35.36,35.36,0,0,0,7.25,39.9h0a35.35,35.35,0,0,0,48.44,1.19l53.92-48.34Z" transform="translate(-70.65 -46.17)"/><g class="cls-14"><polygon class="cls-13" points="99.24 223.68 107.6 206.2 111.85 210.51 99.24 223.68"/><path class="cls-13" d="M186.76,360.35l47.76-21.86-38.72,34.7A35.32,35.32,0,0,1,137,343.71C146.2,361.76,167.73,369.07,186.76,360.35Z" transform="translate(-70.65 -46.17)"/></g><circle class="cls-16" cx="220.62" cy="282.09" r="51.74" transform="translate(-173.07 390.48) rotate(-77.54)"/><rect class="cls-13" x="218.75" y="212.72" width="37.18" height="13.13" rx="5.36" transform="translate(343.36 443.68) rotate(-165.88)"/><circle class="cls-13" cx="257.07" cy="340.46" r="30.69" transform="translate(-129.14 7.2) rotate(-10.65)"/><circle class="cls-16" cx="259.01" cy="332.73" r="30.69" transform="translate(-109.21 -12.19) rotate(-6.99)"/><path class="cls-16" d="M257.89,252.53l.73-17.15a17.31,17.31,0,0,0-8.72-15.78h0a42.18,42.18,0,0,0-25.43-5.28l-2.43.26A17.33,17.33,0,0,0,208.47,224l-7.25,14.3Z" transform="translate(-70.65 -46.17)"/><path class="cls-17" d="M248.36,224.76a39.73,39.73,0,0,0-24-5l-2.29.25a16.15,16.15,0,0,0-6.74,2.3,14.8,14.8,0,0,1,9.34-4.76l2.09-.23a36.07,36.07,0,0,1,21.78,4.53,14.79,14.79,0,0,1,7.48,13A16.33,16.33,0,0,0,248.36,224.76Z" transform="translate(-70.65 -46.17)"/><circle class="cls-16" cx="219.01" cy="279.4" r="46.87" transform="translate(-189.36 342.66) rotate(-69.86)"/><circle class="cls-18" cx="219.01" cy="279.4" r="46.87" transform="translate(-189.36 342.66) rotate(-69.86)"/><ellipse class="cls-18" cx="219.82" cy="281.62" rx="44.92" ry="45.54" transform="translate(-177.58 379.91) rotate(-75.88)"/><path class="cls-19" d="M257.67,258.2a44.65,44.65,0,0,1-83.92,28.65,44.65,44.65,0,1,0,83.92-28.65Z" transform="translate(-70.65 -46.17)"/><circle class="cls-13" cx="259.01" cy="332.73" r="23.91" transform="translate(-206 137.31) rotate(-31.37)"/><circle class="cls-17" cx="257.19" cy="329.68" r="18.9" transform="matrix(0.93, -0.36, 0.36, 0.93, -172.22, 68.74)"/><path class="cls-21" d="M225.45,261.66a2.76,2.76,0,1,1,2.06,3.1A2.65,2.65,0,0,1,225.45,261.66Z" transform="translate(-70.65 -46.17)"/><ellipse class="cls-21" cx="200.86" cy="277.99" rx="2.51" ry="2.75" transform="translate(-188.39 358.78) rotate(-75.88)"/><path class="cls-21" d="M217.79,305a2.76,2.76,0,1,1,2.06,3.11A2.65,2.65,0,0,1,217.79,305Z" transform="translate(-70.65 -46.17)"/><path class="cls-21" d="M246.81,290a1.94,1.94,0,1,1,1.44,2.18A1.86,1.86,0,0,1,246.81,290Z" transform="translate(-70.65 -46.17)"/><path class="cls-16" d="M233.65,270l-5.38,3a3.24,3.24,0,0,1-3.54-.89l-3.32-5.18a3.26,3.26,0,0,1-.73-3l3.12-12.41a3.25,3.25,0,0,1,3.95-2.36l8.7,2.18a3.26,3.26,0,0,1,2.36,3.95l-3.12,12.41A3.28,3.28,0,0,1,233.65,270Z" transform="translate(-70.65 -46.17)"/><path class="cls-17" d="M231.75,268.05l-5.38,3a3.27,3.27,0,0,1-3.54-.89L219.51,265a3.25,3.25,0,0,1-.73-3l3.13-12.41a3.24,3.24,0,0,1,3.94-2.36l8.7,2.19a3.25,3.25,0,0,1,2.36,3.94l-3.12,12.42A3.26,3.26,0,0,1,231.75,268.05Z" transform="translate(-70.65 -46.17)"/><path class="cls-20" d="M222.91,266.37a3.27,3.27,0,0,1-.73-3l2.58-10.25a3.25,3.25,0,0,1,3.94-2.36l6.29,1.59a3.09,3.09,0,0,1,.51.18,3.28,3.28,0,0,0-2.27-2l-6.29-1.58A3.25,3.25,0,0,0,223,251.3l-2.58,10.25a3.24,3.24,0,0,0,.73,2.95l3.32,5.19a3.2,3.2,0,0,0,1.06.78Z" transform="translate(-70.65 -46.17)"/><path class="cls-16" d="M227.38,294.85l-3.32-5.19a3.25,3.25,0,0,0-3.53-.89l-5.38,3a3.22,3.22,0,0,0-2,2.26L210,306.44a3.25,3.25,0,0,0,2.36,3.95l8.7,2.19a3.26,3.26,0,0,0,4-2.36l3.12-12.41A3.23,3.23,0,0,0,227.38,294.85Z" transform="translate(-70.65 -46.17)"/><path class="cls-17" d="M225.48,293l-3.32-5.19a3.27,3.27,0,0,0-3.54-.89l-5.38,3a3.26,3.26,0,0,0-2,2.26l-3.12,12.42a3.24,3.24,0,0,0,2.36,3.94l8.7,2.19a3.25,3.25,0,0,0,4-2.36l3.12-12.41A3.26,3.26,0,0,0,225.48,293Z" transform="translate(-70.65 -46.17)"/><path class="cls-20" d="M216.9,290.26a3.27,3.27,0,0,0-2.05,2.26l-2.57,10.25a3.25,3.25,0,0,0,2.36,3.94l6.28,1.58a2.52,2.52,0,0,0,.54.08,3.23,3.23,0,0,1-3,.73l-6.28-1.58a3.25,3.25,0,0,1-2.36-3.95l2.57-10.24a3.27,3.27,0,0,1,2.05-2.26l5.38-3a3.23,3.23,0,0,1,1.3-.18Z" transform="translate(-70.65 -46.17)"/><path class="cls-16" d="M233.4,290.11l-3-5.38a3.27,3.27,0,0,1,.89-3.54l5.19-3.32a3.25,3.25,0,0,1,3-.73l12.41,3.13a3.24,3.24,0,0,1,2.36,3.94l-2.19,8.7a3.25,3.25,0,0,1-3.94,2.36l-12.42-3.12A3.26,3.26,0,0,1,233.4,290.11Z" transform="translate(-70.65 -46.17)"/><path class="cls-17" d="M235.31,288.21l-3-5.38a3.25,3.25,0,0,1,.89-3.54l5.18-3.32a3.27,3.27,0,0,1,3-.73l12.42,3.13a3.25,3.25,0,0,1,2.36,3.94l-2.19,8.7a3.25,3.25,0,0,1-4,2.36l-12.41-3.12A3.22,3.22,0,0,1,235.31,288.21Z" transform="translate(-70.65 -46.17)"/><path class="cls-20" d="M237,279.37a3.25,3.25,0,0,1,3-.73l10.24,2.58a3.25,3.25,0,0,1,2.36,3.94L251,291.45a3.09,3.09,0,0,1-.18.51,3.25,3.25,0,0,0,2-2.27l1.58-6.28a3.24,3.24,0,0,0-2.36-4l-10.24-2.58a3.27,3.27,0,0,0-3,.73l-5.18,3.32a3.14,3.14,0,0,0-.78,1.07Z" transform="translate(-70.65 -46.17)"/><path class="cls-16" d="M208.51,283.85l5.19-3.32a3.27,3.27,0,0,0,.89-3.54l-3-5.38a3.26,3.26,0,0,0-2.26-2l-12.42-3.13A3.25,3.25,0,0,0,193,268.8l-2.19,8.71a3.25,3.25,0,0,0,2.36,3.94l12.41,3.12A3.22,3.22,0,0,0,208.51,283.85Z" transform="translate(-70.65 -46.17)"/><path class="cls-17" d="M210.4,281.94l5.18-3.32a3.25,3.25,0,0,0,.89-3.54l-3-5.38a3.24,3.24,0,0,0-2.26-2l-12.41-3.12a3.26,3.26,0,0,0-4,2.36l-2.19,8.7a3.26,3.26,0,0,0,2.36,3.95l12.42,3.12A3.27,3.27,0,0,0,210.4,281.94Z" transform="translate(-70.65 -46.17)"/><path class="cls-20" d="M213.1,273.36a3.24,3.24,0,0,0-2.27-2l-10.24-2.58a3.26,3.26,0,0,0-4,2.36l-1.58,6.29a4.51,4.51,0,0,0-.08.53,3.27,3.27,0,0,1-.73-3l1.59-6.29a3.24,3.24,0,0,1,3.94-2.36L210,268.89a3.24,3.24,0,0,1,2.27,2l3,5.38a3.24,3.24,0,0,1,.19,1.3Z" transform="translate(-70.65 -46.17)"/><path class="cls-20" d="M241.55,330.75A19,19,0,0,1,272.33,321a17.16,17.16,0,0,0-30.66,5.72,16.7,16.7,0,0,0-.44,5.6A14.92,14.92,0,0,1,241.55,330.75Z" transform="translate(-70.65 -46.17)"/><path class="cls-20" d="M275.13,329.44c.11.19.23.38.33.57,0-.1,0-.19,0-.29Z" transform="translate(-70.65 -46.17)"/><g class="cls-22"><path class="cls-20" d="M270.94,334.61a15.82,15.82,0,0,1-26.8,2.93,14.31,14.31,0,0,0,27.32-4.18A12.23,12.23,0,0,1,270.94,334.61Z" transform="translate(-70.65 -46.17)"/><path class="cls-20" d="M243.22,330.19c-.05-.18-.13-.35-.18-.52a2,2,0,0,1,0,.24A2.92,2.92,0,0,1,243.22,330.19Z" transform="translate(-70.65 -46.17)"/></g><path class="cls-20" d="M230.4,242.28a40.24,40.24,0,0,1,11.91,5.16,37.06,37.06,0,0,0-14.91-7.67c-21.1-5.31-42.79,8.64-48.45,31.14-.3,1.19-.54,2.38-.74,3.56C185,251,208,236.64,230.4,242.28Z" transform="translate(-70.65 -46.17)"/><polygon class="cls-20" points="179.12 209.68 179.13 209.69 179.13 209.68 179.12 209.68"/><path class="cls-17" d="M337.12,277.73l-59.74-15a3.89,3.89,0,0,1-2.82-4.72h0a3.87,3.87,0,0,1,4.71-2.81l59.74,15a3.87,3.87,0,0,1,2.82,4.71h0A3.88,3.88,0,0,1,337.12,277.73Z" transform="translate(-70.65 -46.17)"/><circle class="cls-23" cx="165.19" cy="308.51" r="6.28" transform="translate(-251.48 314.61) rotate(-70.42)"/><path class="cls-20" d="M243.51,257.24a2.87,2.87,0,1,0,3.48-2.09A2.87,2.87,0,0,0,243.51,257.24Z" transform="translate(-70.65 -46.17)"/><path class="cls-17" d="M288.13,275.72a4.16,4.16,0,1,1-3-5.05A4.15,4.15,0,0,1,288.13,275.72Z" transform="translate(-70.65 -46.17)"/><path class="cls-24" d="M264.31,324.63a3.88,3.88,0,1,0,4.71-2.82A3.88,3.88,0,0,0,264.31,324.63Z" transform="translate(-70.65 -46.17)"/><rect class="cls-13" x="281.66" y="299.39" width="15.04" height="6" rx="0.91" transform="translate(11.86 -107.59) rotate(14.12)"/><rect class="cls-17" x="281.14" y="297.02" width="15.04" height="6" rx="0.91" transform="translate(11.27 -107.53) rotate(14.12)"/><path class="cls-20" d="M283.09,298.27a.92.92,0,0,1,1.11-.66l10.85,2.73a.82.82,0,0,1,.28.14h0a.91.91,0,0,0-.66-1.11l-10.85-2.73a.91.91,0,0,0-1.11.66l-.65,2.59a.89.89,0,0,0,.38,1Z" transform="translate(-70.65 -46.17)"/><rect class="cls-13" x="312.59" y="307.18" width="15.04" height="6" rx="0.91" transform="translate(14.7 -114.9) rotate(14.12)"/><rect class="cls-17" x="312.07" y="304.8" width="15.04" height="6" rx="0.91" transform="translate(14.1 -114.84) rotate(14.12)"/><path class="cls-20" d="M314,306.06a.92.92,0,0,1,1.11-.67L326,308.12a1,1,0,0,1,.29.14h0a.92.92,0,0,0-.67-1.11l-10.85-2.73a.91.91,0,0,0-1.11.66l-.65,2.59a.91.91,0,0,0,.38,1Z" transform="translate(-70.65 -46.17)"/><rect class="cls-13" x="293.43" y="318.68" width="15.04" height="6" rx="0.91" transform="translate(16.93 -109.88) rotate(14.12)"/><rect class="cls-17" x="292.91" y="316.3" width="15.04" height="6" rx="0.91" transform="translate(16.33 -109.82) rotate(14.12)"/><path class="cls-20" d="M294.86,317.56a.92.92,0,0,1,1.11-.66l10.86,2.73a1.43,1.43,0,0,1,.28.13h0a.92.92,0,0,0-.67-1.11l-10.85-2.73a.91.91,0,0,0-1.11.66l-.65,2.59a.9.9,0,0,0,.38,1Z" transform="translate(-70.65 -46.17)"/><circle class="cls-25" cx="153.69" cy="178.65" r="1.97"/><path class="cls-25" d="M393.62,267a1.6,1.6,0,1,1-1.17-1.95A1.6,1.6,0,0,1,393.62,267Z" transform="translate(-70.65 -46.17)"/><path class="cls-23" d="M158.25,319.67a1.88,1.88,0,0,1-3.64-.92,1.88,1.88,0,1,1,3.64.92Z" transform="translate(-70.65 -46.17)"/><path class="cls-23" d="M410.66,406.52a7.84,7.84,0,1,1,5.69,9.52A7.84,7.84,0,0,1,410.66,406.52Z" transform="translate(-70.65 -46.17)"/><path class="cls-23" d="M418.74,388.84a2.25,2.25,0,1,1,1.64,2.73A2.26,2.26,0,0,1,418.74,388.84Z" transform="translate(-70.65 -46.17)"/><rect class="cls-26" x="444.26" y="347.66" width="10.62" height="14.76"/><polygon class="cls-26" points="423.15 347.66 412.53 347.66 410.02 362.41 420.65 362.41 423.15 347.66"/><path class="cls-26" d="M459,221,440.4,202.41a.87.87,0,0,0-.87-.2l-3.73,1.21a.86.86,0,0,0-.49,1.22l14.19,26.74A6.79,6.79,0,0,0,460,233.31l6-5.27a.85.85,0,0,0,0-1.3l-6.88-5.64Z" transform="translate(-70.65 -46.17)"/><path class="cls-26" d="M442.47,205.22s-.2-6.29-4.26-10c-2.67-2.46-7.41-3.53-10.3-1.33h0l11.93,17.79Z" transform="translate(-70.65 -46.17)"/><path class="cls-26" d="M481,216.66l-22.39,4s-2.56,14.65-1.85,14.13,28.16-6,28.16-6Z" transform="translate(-70.65 -46.17)"/><path class="cls-5" d="M503,224s-.42-12.12-11.42-11.18c-14.35,1.22-21.45,3-21.45,3L469,236.46Z" transform="translate(-70.65 -46.17)"/><path class="cls-9" d="M510.8,209.94l-18.56,2.74a3.87,3.87,0,0,0-3.31,3.78l-.44,61.71,47.57.12-3.33-56.08L531.19,217a6.61,6.61,0,0,0-5.29-4.64Z" transform="translate(-70.65 -46.17)"/><polygon class="cls-26" points="458.69 188.76 473.96 203.89 480.63 189.5 470.5 178.23 458.69 188.76"/><path class="cls-5" d="M523,224c-3.54-5.8,1.43-13.36,8.08-11.95a5.39,5.39,0,0,1,1.62.61c5.59,3.38,15.21,14.09,15.21,14.09l-15.52,12.6Z" transform="translate(-70.65 -46.17)"/><path class="cls-26" d="M550.65,236.18l8.15-26.49,5.88,1.58-2.31,31.89s-2,15.2-17.76,6.9Z" transform="translate(-70.65 -46.17)"/><path class="cls-26" d="M558.8,209.69s-2-6.54-.58-11.71a7.23,7.23,0,0,1,8.13-5.08h0l-1.88,21.17Z" transform="translate(-70.65 -46.17)"/><path class="cls-27" d="M498.4,177.15s-7.36,6.92-.11,9.42Z" transform="translate(-70.65 -46.17)"/><path class="cls-5" d="M503.27,189.06a6,6,0,0,1-5.68,6.22,5.91,5.91,0,0,1-6-5.85,6,6,0,0,1,5.68-6.22A5.92,5.92,0,0,1,503.27,189.06Z" transform="translate(-70.65 -46.17)"/><path class="cls-26" d="M504.13,200.32l-.39,9.81c-.14,3.44,1.84,5.36,5.13,5.46h0c2.8.08,5.93-1.16,5.93-4.2l-.11-15.46Z" transform="translate(-70.65 -46.17)"/><path class="cls-28" d="M503.85,210.13a17.4,17.4,0,0,0,10.8-11.2c.89-2.8-10.5.38-10.5.38Z" transform="translate(-70.65 -46.17)"/><path class="cls-26" d="M508.94,203.32h0c-5.58.51-10.6-3.62-11.19-8.31l-1.17-9.83a10.86,10.86,0,0,1,8.85-12.2h0c5.8-.94,12.29,3,13.23,9l.82,7.67A12.33,12.33,0,0,1,508.94,203.32Z" transform="translate(-70.65 -46.17)"/><path class="cls-27" d="M491.38,174a12.65,12.65,0,0,1,5-4.3c3.9-1.9,8.22-1.3,12.4-1.35,4.94-.06,9.15,2.62,10.68,5.56a4.53,4.53,0,0,1,4.66,4.38c.73,6-6.51,15.94-6.51,15.94s-.8-7.8-.81-7.85a10.59,10.59,0,0,1-2.54-.79,4.09,4.09,0,0,1-1.42-1.74,9.16,9.16,0,0,1-.39-4.32,21,21,0,0,0-3.25,1.18c-4.79,2.06-10,3.62-15.16,3.18a5.11,5.11,0,0,1-2.28-.59,4.44,4.44,0,0,1-1.88-3.42A8.74,8.74,0,0,1,491.38,174Z" transform="translate(-70.65 -46.17)"/><path class="cls-29" d="M524.34,191.09a4,4,0,0,1-3.83,4.19,4,4,0,0,1-4-3.94,3.94,3.94,0,1,1,7.88-.25Z" transform="translate(-70.65 -46.17)"/><path class="cls-30" d="M519.08,192.24s-.08-3,2.66-2.58" transform="translate(-70.65 -46.17)"/><path class="cls-5" d="M513.59,189.51c-1,4.38,1.19,8.55,5.68,9.53,3.17.68,4.86-2.66,5.81-7s-.85-8.48-4-9.17S514.54,185.13,513.59,189.51Z" transform="translate(-70.65 -46.17)"/><path class="cls-9" d="M515.24,189.87c-1,4.37.85,8.48,4,9.17s6.51-2.31,7.46-6.68-.85-8.49-4-9.17S516.19,185.49,515.24,189.87Z" transform="translate(-70.65 -46.17)"/><path class="cls-9" d="M522.55,184.64a25.68,25.68,0,0,0-.15-7.85,11.7,11.7,0,0,0-9.52-9.66c-.36-.07-.75-.13-1.16-.18a7,7,0,0,0-4.19.6,5.39,5.39,0,0,0-.91.62s6.35.17,9.34,3.79c3.37,4.09,4.17,9.65,3.9,13.36Z" transform="translate(-70.65 -46.17)"/><path class="cls-26" d="M518.6,211.19l-7.8-1.25-10.37,1.53s-.64,6.05,8.13,6.31S518.6,211.19,518.6,211.19Z" transform="translate(-70.65 -46.17)"/><rect class="cls-27" x="419.22" y="232.12" width="44.66" height="5.09"/><polygon class="cls-27" points="419.22 237.21 409.25 354.35 424.45 354.35 440.32 272.04 438.86 237.21 419.22 237.21"/><polygon class="cls-10" points="433.51 237.21 463.88 232.12 456.33 356.71 442.72 356.71 433.51 237.21"/><polygon class="cls-13" points="373.07 140.4 385.6 157.78 352.84 171.62 343.5 149.76 373.07 140.4"/><polygon class="cls-18" points="346.46 151.52 372.56 143.27 381.96 156.3 353.62 168.27 346.46 151.52"/><polygon class="cls-20" points="362.28 146.51 368.48 144.56 367.2 162.53 361.69 164.86 362.28 146.51"/><polygon class="cls-20" points="358.86 147.47 360.57 146.92 359.72 165.52 358.28 166.12 358.86 147.47"/><path class="cls-13" d="M502.14,412.71H527v-4.58a1.32,1.32,0,0,0-1.39-1.17c-1.68-.08-4.45-.41-5.82-1.67a3.13,3.13,0,0,0-2.15-.82h-4.18l-12.95,4.38c-1.89.64-3,2.24-2.62,3.86h4.3Z" transform="translate(-70.65 -46.17)"/><rect class="cls-10" x="427.12" y="366.54" width="29.18" height="1.47"/><path class="cls-13" d="M468.88,411.22h24.81v-4.57a1.33,1.33,0,0,0-1.39-1.18c-1.68-.08-4.45-.41-5.82-1.67a3.13,3.13,0,0,0-2.15-.82h-4.18l-12.95,4.39c-1.89.64-3,2.23-2.62,3.85h4.3Z" transform="translate(-70.65 -46.17)"/><rect class="cls-10" x="393.86" y="365.05" width="29.18" height="1.47"/><rect class="cls-26" x="281.53" y="309.79" width="10.62" height="14.76" transform="translate(425.35 644) rotate(-167.16)"/><polygon class="cls-26" points="257.01 258.93 267.63 258.93 270.14 273.68 259.51 273.68 257.01 258.93"/><path class="cls-26" d="M335.73,164.94l23.78-11.32a.85.85,0,0,1,.89.1l3.11,2.39a.86.86,0,0,1,.06,1.31l-22.33,20.46a6.8,6.8,0,0,1-10.52-1.69l-3.9-7a.85.85,0,0,1,.46-1.22l8.37-3Z" transform="translate(-70.65 -46.17)"/><path class="cls-26" d="M356.62,155.58s2.3-5.87,7.37-8c3.34-1.42,8.16-.84,10.14,2.2h0l-17.19,12.77Z" transform="translate(-70.65 -46.17)"/><path class="cls-26" d="M316.45,153.45l19.75,11.27s-2.48,14.67-3,13.94-24.54-15-24.54-15Z" transform="translate(-70.65 -46.17)"/><path class="cls-27" d="M294.84,155.57s4.05-11.43,14.26-7.22c13.31,5.49,19.53,9.38,19.53,9.38l-5.14,20Z" transform="translate(-70.65 -46.17)"/><path class="cls-10" d="M287.7,145.66l18.57,2.74a3.88,3.88,0,0,1,3.3,3.79L310,219.1,262.45,214l3.33-56.08,1.54-5.21a6.61,6.61,0,0,1,5.28-4.64Z" transform="translate(-70.65 -46.17)"/><polygon class="cls-26" points="197.33 125.66 183.24 139.62 176.57 125.23 186.7 113.95 197.33 125.66"/><path class="cls-27" d="M275.47,159.7c3.54-5.8-1.43-13.35-8.07-11.95a5.31,5.31,0,0,0-1.63.62c-5.58,3.37-15.21,14.08-15.21,14.08l15.53,12.61Z" transform="translate(-70.65 -46.17)"/><path class="cls-27" d="M300.1,112.87s7.36,6.92.11,9.43Z" transform="translate(-70.65 -46.17)"/><path class="cls-31" d="M295.24,124.79a6,6,0,0,0,5.68,6.22,6,6,0,1,0-5.68-6.22Z" transform="translate(-70.65 -46.17)"/><path class="cls-26" d="M294.38,136l.38,9.81c.15,3.45-1.83,5.37-5.12,5.46h0c-2.8.08-5.94-1.16-5.93-4.2l.11-15.46Z" transform="translate(-70.65 -46.17)"/><path class="cls-28" d="M294.66,145.85a17.38,17.38,0,0,1-10.8-11.2c-.9-2.8,10.5.39,10.5.39Z" transform="translate(-70.65 -46.17)"/><path class="cls-26" d="M289.57,139h0c5.58.51,10.59-3.61,11.18-8.31l1.18-9.82a10.87,10.87,0,0,0-8.85-12.2h0c-5.8-.94-12.29,3-13.23,9l-.83,7.67A12.34,12.34,0,0,0,289.57,139Z" transform="translate(-70.65 -46.17)"/><path class="cls-27" d="M307.57,109.48a3.49,3.49,0,0,0-3.49-1.94,3.66,3.66,0,0,0-2.22-3.65,3.07,3.07,0,0,0-3.32.51,3.48,3.48,0,0,0-2.09-1.32,2.5,2.5,0,0,0-2.31.75,1.38,1.38,0,0,0-1.24-.66,5,5,0,0,0-2.76.73,3.7,3.7,0,0,1-2,.25,11.49,11.49,0,0,0-5.89,2.06,10.18,10.18,0,0,0-2.47,2.25c-.25.31-.47.9-.85,1s-1.57-.56-2.14-.59a2.32,2.32,0,0,0-2,.85,1.42,1.42,0,0,0,.33,2c-.66-.36-1.91,1.7-2.05,2.11a3.28,3.28,0,0,0,.58,3.1c.34.41,1.24.64,1.42,1.06.28.68-.72,1.44-.16,2.23a1.56,1.56,0,0,0,.93.53c1.14.29,1.6-.06,1.61,1.26a7.16,7.16,0,0,0,.61,3.39,35.47,35.47,0,0,0,2.86,4.52s.81-7.79.81-7.85,2.09-.59,2.28-.63c1-.25,1.89-.55,2.23-1.71a.47.47,0,0,1,.16-.31c.19-.13.42,0,.59.19a3.73,3.73,0,0,0,3.33.63,6.37,6.37,0,0,0,2.9-1.9,6.55,6.55,0,0,0,1.59,1.19,3.3,3.3,0,0,0,4.59-2.09c1.8-.24,3.75.44,5.38-.35a3.37,3.37,0,0,0,1.67-3.9A3,3,0,0,0,307.57,109.48Z" transform="translate(-70.65 -46.17)"/><path class="cls-29" d="M274.17,126.82A4,4,0,0,0,278,131a4,4,0,0,0,4.05-3.95,3.94,3.94,0,1,0-7.88-.24Z" transform="translate(-70.65 -46.17)"/><path class="cls-30" d="M279.43,128s.08-2.95-2.66-2.57" transform="translate(-70.65 -46.17)"/><path class="cls-31" d="M284.91,125.23c.95,4.38-1.18,8.56-5.67,9.53-3.17.69-4.87-2.66-5.82-7s.86-8.48,4-9.17S284,120.85,284.91,125.23Z" transform="translate(-70.65 -46.17)"/><ellipse class="cls-6" cx="277.52" cy="126.83" rx="5.88" ry="8.11" transform="translate(-91.24 15.55) rotate(-12.24)"/><path class="cls-6" d="M276,120.36a25.86,25.86,0,0,1,.14-7.85,11.71,11.71,0,0,1,9.52-9.66l1.16-.17a6.85,6.85,0,0,1,4.2.6,4.43,4.43,0,0,1,.91.62s-6.35.16-9.34,3.79c-3.37,4.08-4.18,9.64-3.9,13.36Z" transform="translate(-70.65 -46.17)"/><path class="cls-26" d="M279.9,146.91l7.8-1.25,10.38,1.53s.64,6.06-8.14,6.31S279.9,146.91,279.9,146.91Z" transform="translate(-70.65 -46.17)"/><rect class="cls-27" x="263.98" y="214.01" width="44.66" height="5.09" transform="translate(501.96 386.95) rotate(180)"/><path class="cls-13" d="M301.91,332.4l-24.18-5.51,1-4.46a1.33,1.33,0,0,1,1.63-.84c1.65.3,4.42.59,6-.34a3.17,3.17,0,0,1,2.28-.31l4.08.93L304.41,329c1.7,1,2.4,2.84,1.7,4.34h0Z" transform="translate(-70.65 -46.17)"/><rect class="cls-9" x="277.2" y="330.11" width="29.18" height="1.47" transform="translate(432.07 672.12) rotate(-167.16)"/><path class="cls-13" d="M352.58,322.49H327.77v-4.57a1.34,1.34,0,0,1,1.4-1.18c1.68-.08,4.44-.41,5.81-1.67a3.17,3.17,0,0,1,2.15-.82h4.18l12.95,4.39c1.89.64,3,2.23,2.63,3.85h-4.31Z" transform="translate(-70.65 -46.17)"/><rect class="cls-9" x="327.77" y="322.49" width="29.18" height="1.47" transform="translate(614.07 600.29) rotate(180)"/><path class="cls-5" d="M287.56,227.94l3.94-14,30.05.52a12,12,0,0,1,11.53,9.7l13.58,85.43H325.34L312.65,245l-27.52,1Z" transform="translate(-70.65 -46.17)"/><path class="cls-9" d="M259.46,223.43l2.67-12,36.21,3.13c8.78,2,11.88,5.57,11.88,18l-14,81.73L279,314.2,283.28,245l-10.49-1.36a16,16,0,0,1-13.22-11.17h0A15.9,15.9,0,0,1,259.46,223.43Z" transform="translate(-70.65 -46.17)"/><path class="cls-13" d="M235.94,131.89a6.32,6.32,0,0,1,.19-5.45c1.54-2.77,4.05-4.87,6.33-7,1.94-1.82,3.9-4.3,6.85-4a10.88,10.88,0,0,1,3.86,1.31c1.1.58,2.08,1.39,3.14,2.06a2.8,2.8,0,0,1,.71.66c.06.09.12.17.17.26a.75.75,0,0,1,.07.12c0,.07.07.15.11.23a.58.58,0,0,1,.05.14,1.83,1.83,0,0,1,.08.25.45.45,0,0,1,0,.11,2.2,2.2,0,0,1,.06.37.45.45,0,0,0,0,.11v.29s0,.08,0,.12a2.63,2.63,0,0,1-.06.39,2.86,2.86,0,0,1-3.28,2.17l-3.32-.58a2.48,2.48,0,0,1-3.35,3.21l-1,1.05a2.48,2.48,0,0,1-.4,2.87,2.51,2.51,0,0,1-2.66.61l.71,3.29a2.87,2.87,0,0,1-2,3.37,2.66,2.66,0,0,1-.39.07h-.12l-.29,0h-.11a2.2,2.2,0,0,1-.37,0l-.11,0-.26-.07-.14-.05-.23-.1-.13-.06-.25-.16a2.83,2.83,0,0,1-.7-.68l-.06-.09c-.88-1.27-1.92-2.51-2.68-3.85A7.43,7.43,0,0,1,235.94,131.89Z" transform="translate(-70.65 -46.17)"/><path class="cls-26" d="M247.86,171.91l-8.15-26.5L233.82,147l2.32,31.89s2,15.21,17.75,6.91Z" transform="translate(-70.65 -46.17)"/><path class="cls-26" d="M239.71,145.41s2-6.54.58-11.71a7.22,7.22,0,0,0-8.13-5.07h0L234,149.8Z" transform="translate(-70.65 -46.17)"/></g></g></svg>